<?xml version="1.0" encoding="utf-8"?>
<!-- Generator: Adobe Illustrator 18.0.0, SVG Export Plug-In . SVG Version: 6.00 Build 0)  -->
<!DOCTYPE svg PUBLIC "-//W3C//DTD SVG 1.1//EN" "http://www.w3.org/Graphics/SVG/1.1/DTD/svg11.dtd">
<svg version="1.1" id="Layer_1" xmlns="http://www.w3.org/2000/svg" xmlns:xlink="http://www.w3.org/1999/xlink" x="0px" y="0px"
	 viewBox="0 0 1014 729" enable-background="new 0 0 1014 729" xml:space="preserve">
<rect x="40.8" y="39.4" width="932.9" height="648.6"/>
<rect x="11.7" y="10.4" fill="none" stroke="#000000" stroke-width="24" stroke-miterlimit="10" width="990.7" height="706.6"/>
<g>
	<path fill="#FFFFFF" d="M103.1,182.8h11.1v26.6c3-4.6,7.2-8.7,14.3-8.7c10.1,0,16.1,7.1,16.1,18.3v35h-11.1v-31.9
		c0-7.3-3.5-11.3-9.4-11.3c-5.8,0-9.9,4.3-9.9,11.5v31.7h-11.1V182.8z"/>
	<path fill="#FFFFFF" d="M153.9,239.1v-0.5c0-11.2,7.5-16.8,18.5-16.8c4.9,0,8.5,0.9,12,2.1v-2.2c0-7-4.1-10.7-11.2-10.7
		c-5,0-9.2,1.6-12.6,3.2l-3.2-8.9c5-2.5,10.3-4.1,17.3-4.1c6.8,0,12,1.9,15.4,5.3c3.5,3.5,5.2,8.6,5.2,15.1v32.5h-11v-6.4
		c-3.1,4.4-7.7,7.4-14.5,7.4C161.2,255.1,153.9,249.2,153.9,239.1z M184.5,236.5v-5.2c-2.6-1.1-5.9-1.9-9.7-1.9
		c-6.4,0-10.2,3.3-10.2,8.8v0.2c0,5.2,3.7,8.2,8.5,8.3C179.6,246.8,184.5,242.4,184.5,236.5z"/>
	<path fill="#FFFFFF" d="M201.5,201.8h11.7l11.7,38.1l11.8-38.1h11.5l-18.3,52.7h-10.4L201.5,201.8z"/>
	<path fill="#FFFFFF" d="M251.1,247.8l5.2-8c4.7,3.8,9.8,6.1,14.4,6.1s7.3-2.5,7.3-5.7v-0.1c0-3.7-4-5.4-10.3-8.1
		c-7.8-3.4-14.3-6.9-14.3-15.5v-0.2c0-9.4,7.5-15.3,17.3-15.3c5.8,0,12,2.1,17,5.6l-4.7,8.2c-3.9-2.7-8.3-4.6-12.4-4.6
		c-4.1,0-6.6,2.3-6.6,5.1v0.2c0,3.5,4.1,5.2,10.3,8c8.1,3.7,14.2,7.4,14.2,15.6v0.1c0,10.3-7.8,15.9-17.9,15.9
		C264.3,255.1,257.1,252.8,251.1,247.8z"/>
	<path fill="#FFFFFF" d="M298.9,182.8H310v71.2h-11.1V182.8z"/>
	<path fill="#FFFFFF" d="M320.9,228.5v-0.8c0-15.7,9.5-26.9,22.3-26.9c14.2,0,21.7,11.8,21.7,27.5c0,0.7,0,2.3-0.1,3.8H332
		c1,8.8,6.4,13.5,13.2,13.5c4.9,0,8.6-2.2,12-5.5l5.8,6.9c-4.7,5-10.6,8.1-18.4,8.1C331.3,255.2,320.9,244.9,320.9,228.5z
		 M354,224.5c-0.6-8.3-4.3-14.3-10.9-14.3c-6.1,0-10.5,5.4-11.2,14.3H354z"/>
	<path fill="#FFFFFF" d="M374.9,264.2l3.7-8.8c4.5,2.8,10.1,4.4,15.7,4.4c9.2,0,14.2-4.5,14.2-13.8v-5c-3.6,5.1-8.2,9.2-15.8,9.2
		c-10.5,0-19.9-8.4-19.9-24.5v-0.4c0-16.2,9.6-24.6,19.9-24.6c7.7,0,12.3,4.1,15.7,8.8v-7.8h11.1v43.8c0,7.8-2.1,13.5-5.9,17.4
		c-4.1,4.2-10.6,6.2-18.8,6.2C387.6,269.2,380.9,267.5,374.9,264.2z M408.6,225.7v-0.2c0-9.2-5.8-14.9-12.5-14.9
		c-6.8,0-12,5.6-12,14.9v0.1c0,9.3,5.3,15,12,15C402.7,240.6,408.6,234.7,408.6,225.7z"/>
	<path fill="#FFFFFF" d="M431.6,236.8v-35h11.1v31.9c0,7.3,3.5,11.3,9.3,11.3c5.8,0,9.9-4.3,9.9-11.5v-31.7h11.2v52.3h-11.2v-7.6
		c-3,4.6-7.1,8.6-14.2,8.6C437.6,255.1,431.6,248.1,431.6,236.8z"/>
	<path fill="#FFFFFF" d="M482.8,239.1v-0.5c0-11.2,7.5-16.8,18.5-16.8c4.9,0,8.5,0.9,12,2.1v-2.2c0-7-4.1-10.7-11.2-10.7
		c-5,0-9.2,1.6-12.6,3.2l-3.2-8.9c5-2.5,10.3-4.1,17.3-4.1c6.8,0,12,1.9,15.4,5.3c3.5,3.5,5.2,8.6,5.2,15.1v32.5h-11v-6.4
		c-3.1,4.4-7.7,7.4-14.5,7.4C490.1,255.1,482.8,249.2,482.8,239.1z M513.5,236.5v-5.2c-2.6-1.1-5.9-1.9-9.7-1.9
		c-6.4,0-10.2,3.3-10.2,8.8v0.2c0,5.2,3.7,8.2,8.5,8.3C508.6,246.8,513.5,242.4,513.5,236.5z"/>
	<path fill="#FFFFFF" d="M536.3,201.8h11.1v7.7c3-4.6,7.2-8.7,14.3-8.7c10.1,0,16.1,7.1,16.1,18.3v35h-11.1v-31.9
		c0-7.3-3.5-11.3-9.4-11.3c-5.8,0-9.9,4.3-9.9,11.5v31.7h-11.1V201.8z"/>
</g>
<g>
	<path fill="#FFFFFF" d="M104.4,324.5h4.7v18.6c1.9-3.4,4.9-6.2,10-6.2c6.9,0,11.1,4.8,11.1,12.4v22.2h-4.7v-20.9
		c0-6.1-2.9-9.4-7.8-9.4c-4.9,0-8.6,3.9-8.6,9.7v20.6h-4.7V324.5z"/>
	<path fill="#FFFFFF" d="M137.2,361.7v-0.3c0-7,5-10.9,12.5-10.9c3.6,0,6.2,0.6,8.7,1.4v-2c0-5.5-3.2-8.4-8.7-8.4
		c-3.4,0-6.3,1-8.7,2.3l-1.5-3.8c3.2-1.6,6.5-2.7,10.7-2.7c4.1,0,7.3,1.2,9.5,3.4c2.1,2.1,3.3,5.2,3.3,9.2v21.8h-4.6v-4.9
		c-2,3.2-5.3,5.7-10.4,5.7C142.4,372.2,137.2,368.4,137.2,361.7z M158.5,359.7v-4.2c-2.1-0.8-4.9-1.4-8.2-1.4
		c-5.4,0-8.4,2.8-8.4,7.1v0.2c0,4.2,3.2,6.9,7.2,6.9C154.3,368.4,158.5,364.7,158.5,359.7z"/>
	<path fill="#FFFFFF" d="M168.2,337.6h5.1l9.5,27.9l9.6-27.9h4.9l-12.4,34.2h-4.2L168.2,337.6z"/>
	<path fill="#FFFFFF" d="M200.1,367.4l2.5-3.5c3.2,2.7,6.5,4.1,9.9,4.1c3.7,0,6.3-2.1,6.3-5.3v-0.1c0-3-2.8-4.6-7.4-6.4
		c-5.4-2.3-9.7-4.5-9.7-9.8v-0.1c0-5.5,4.5-9.2,10.5-9.2c3.8,0,7.8,1.5,10.7,3.6l-2.3,3.6c-2.6-1.9-5.5-3.2-8.5-3.2
		c-3.6,0-5.9,2.1-5.9,4.8v0.1c0,2.9,2.9,4.3,7.6,6.3c5.6,2.5,9.5,4.8,9.5,10v0.1c0,6.1-4.9,9.8-11,9.8
		C208.2,372.1,203.7,370.5,200.1,367.4z"/>
	<path fill="#FFFFFF" d="M231.4,324.5h4.7v47h-4.7V324.5z"/>
	<path fill="#FFFFFF" d="M244.3,354.9v-0.3c0-10.4,6.1-17.6,14-17.6c8.5,0,13.6,7.3,13.6,17.5c0,0.5,0,1.4-0.1,2h-22.8
		c0.5,7.5,5.1,11.7,10.5,11.7c3.7,0,6.4-1.6,8.8-3.9l2.7,3c-3.1,3.1-6.6,5.1-11.7,5.1C251.1,372.2,244.3,365.6,244.3,354.9z
		 M267.3,352.8c-0.3-6.4-3.4-11.7-8.9-11.7c-5,0-8.8,4.6-9.2,11.7H267.3z"/>
	<path fill="#FFFFFF" d="M279.2,377.8l1.9-3.8c3.2,2.1,7,3.3,10.9,3.3c6.4,0,10.4-3.4,10.4-10.2v-4.9c-2.3,3.8-5.8,7-11.2,7
		c-6.9,0-13.3-5.7-13.3-16V353c0-10.2,6.5-16,13.4-16c5.4,0,8.9,3.1,11.1,6.7v-6.1h4.7V367c0,4.6-1.3,8.1-3.7,10.5
		c-2.6,2.6-6.4,3.9-11.3,3.9C287.5,381.4,283.1,380.2,279.2,377.8z M302.5,353.2V353c0-7.3-5-11.8-10.2-11.8
		c-5.3,0-9.6,4.4-9.6,11.8v0.1c0,7.4,4.4,11.9,9.6,11.9C297.5,364.9,302.5,360.4,302.5,353.2z"/>
	<path fill="#FFFFFF" d="M316.2,359.9v-22.3h4.7v20.9c0,6.1,2.9,9.4,7.8,9.4c4.9,0,8.6-3.8,8.6-9.6v-20.7h4.7v33.9h-4.7V366
		c-1.9,3.4-4.9,6.2-10,6.2C320.4,372.2,316.2,367.4,316.2,359.9z"/>
	<path fill="#FFFFFF" d="M349.4,361.7v-0.3c0-7,5-10.9,12.5-10.9c3.6,0,6.2,0.6,8.7,1.4v-2c0-5.5-3.2-8.4-8.7-8.4
		c-3.4,0-6.3,1-8.7,2.3l-1.5-3.8c3.2-1.6,6.5-2.7,10.7-2.7c4.1,0,7.3,1.2,9.5,3.4c2.1,2.1,3.3,5.2,3.3,9.2v21.8h-4.6v-4.9
		c-2,3.2-5.3,5.7-10.4,5.7C354.6,372.2,349.4,368.4,349.4,361.7z M370.7,359.7v-4.2c-2.1-0.8-4.9-1.4-8.2-1.4
		c-5.4,0-8.4,2.8-8.4,7.1v0.2c0,4.2,3.2,6.9,7.2,6.9C366.6,368.4,370.7,364.7,370.7,359.7z"/>
	<path fill="#FFFFFF" d="M384.4,337.6h4.7v5.5c1.9-3.4,4.9-6.2,10-6.2c6.9,0,11.1,4.8,11.1,12.4v22.2h-4.7v-20.9
		c0-6.1-2.9-9.4-7.8-9.4c-4.9,0-8.6,3.9-8.6,9.7v20.6h-4.7V337.6z"/>
	<path fill="#FFFFFF" d="M417,377.2c3.2-1.2,4.4-2.9,4.2-5.7h-2.4v-6.7h5.9v5.7c0,5.1-2.1,7.6-6.9,8.9L417,377.2z"/>
	<path fill="#FFFFFF" d="M448.6,361.8v-0.3c0-6.6,5.1-10.8,12.7-10.8c3.8,0,6.6,0.6,9.2,1.4v-2.4c0-6.1-3.5-9.2-9.4-9.2
		c-3.5,0-6.5,1-8.9,2.4l-1.2-2.7c3.1-1.5,6.4-2.6,10.3-2.6c3.8,0,6.9,1,9.1,3.3c2,1.9,3.1,4.9,3.1,8.7v22.1h-3v-5.3
		c-2,3.3-5.5,6.1-10.7,6.1C454.2,372.2,448.6,368.4,448.6,361.8z M470.7,359.7v-4.8c-2.5-0.8-5.5-1.4-9.4-1.4
		c-6.1,0-9.4,3.3-9.4,7.9v0.3c0,4.8,3.6,7.8,8.3,7.8C465.9,369.4,470.7,365.2,470.7,359.7z"/>
	<path fill="#FFFFFF" d="M483.4,338h3v7.9c2.1-4.9,6.8-8.7,12.5-8.4v3.3h-0.3c-6.5,0-12.2,4.8-12.2,14v16.7h-3V338z"/>
	<path fill="#FFFFFF" d="M507.4,364v-23.2h-4.3V338h4.3v-10.3h3.1V338h9.6v2.8h-9.6v22.8c0,4.2,2.3,5.5,5.6,5.5c1.3,0,2.5-0.3,4-0.8
		v2.8c-1.4,0.7-2.8,0.9-4.4,0.9C511,372,507.4,369.6,507.4,364z"/>
	<path fill="#FFFFFF" d="M543.8,325.4h3.6v4.4h-3.6V325.4z M544,338h3.1v33.5H544V338z"/>
	<path fill="#FFFFFF" d="M571.4,354.9v-0.3c0-9.7,6.2-17.4,14.6-17.4c8.5,0,14.6,7.6,14.6,17.3v0.3c0,9.7-6.2,17.4-14.7,17.4
		C577.6,372.2,571.4,364.7,571.4,354.9z M597.4,354.9v-0.3c0-8.3-5.1-14.5-11.5-14.5c-6.4,0-11.3,6.3-11.3,14.5v0.3
		c0,8.3,5.1,14.5,11.4,14.5C592.5,369.4,597.4,363.1,597.4,354.9z M579.4,328.1h4v4.9h-4V328.1z M588.6,328.1h4v4.9h-4V328.1z"/>
	<path fill="#FFFFFF" d="M607.2,355v-0.5c0-11,6.7-17.3,13.6-17.3c5.7,0,9.3,3.6,11.6,7.7v-20.4h3.1v47h-3.1v-7.2
		c-2.3,4.2-6,7.9-11.6,7.9C613.9,372.2,607.2,366.1,607.2,355z M632.6,355v-0.7c0-8.7-5.6-14.3-11.5-14.3c-6,0-10.7,5.1-10.7,14.3
		v0.5c0,9.1,4.9,14.5,10.7,14.5C627,369.4,632.6,363.8,632.6,355z"/>
	<path fill="#FFFFFF" d="M646.2,324.5h3.1v47h-3.1V324.5z"/>
	<path fill="#FFFFFF" d="M658.1,355v-0.3c0-10.4,5.9-17.5,13.6-17.5c7.9,0,13.1,7,13.1,17.2v1.6h-23.6c0.4,8.5,5.7,13.3,11.6,13.3
		c4,0,6.9-1.7,9.3-4.1l1.9,2.1c-3,2.9-6.3,4.9-11.4,4.9C664.7,372.2,658.1,365.7,658.1,355z M681.6,353.3c-0.3-7.1-3.7-13.2-10-13.2
		c-5.6,0-10,5.3-10.4,13.2H681.6z"/>
	<path fill="#FFFFFF" d="M694.7,340.8h-4.4V338h4.4v-3.5c0-3.5,0.9-6.3,2.6-7.9c1.5-1.5,3.6-2.3,6.2-2.3c1.5,0,2.8,0.3,4,0.6v2.9
		c-1.4-0.5-2.7-0.7-4-0.7c-3.9,0-5.8,2.3-5.8,7.4v3.4h9.6v2.8h-9.6v30.7h-3V340.8z"/>
	<path fill="#FFFFFF" d="M710.1,361.8v-0.3c0-6.6,5.1-10.8,12.7-10.8c3.8,0,6.6,0.6,9.2,1.4v-2.4c0-6.1-3.5-9.2-9.4-9.2
		c-3.5,0-6.5,1-8.9,2.4l-1.2-2.7c3.1-1.5,6.4-2.6,10.3-2.6c3.8,0,6.9,1,9.1,3.3c2,1.9,3.1,4.9,3.1,8.7v22.1h-3v-5.3
		c-2,3.3-5.5,6.1-10.7,6.1C715.7,372.2,710.1,368.4,710.1,361.8z M732.1,359.7v-4.8c-2.5-0.8-5.5-1.4-9.4-1.4
		c-6.1,0-9.4,3.3-9.4,7.9v0.3c0,4.8,3.6,7.8,8.3,7.8C727.4,369.4,732.1,365.2,732.1,359.7z"/>
	<path fill="#FFFFFF" d="M744.9,338h3v5.7c1.8-3.4,4.6-6.4,9.7-6.4c4.7,0,8.1,2.7,9.7,6.6c1.9-3.4,5-6.6,10.5-6.6
		c6.7,0,11,4.8,11,12.7v21.6h-3v-20.8c0-7-3.1-10.7-8.3-10.7c-4.9,0-9.1,4-9.1,10.9v20.6h-3.1v-21c0-6.8-3.1-10.5-8.3-10.5
		c-5.1,0-9.2,4.7-9.2,11v20.5h-3V338z"/>
	<path fill="#FFFFFF" d="M799.1,325.4h3.6v4.4h-3.6V325.4z M799.3,338h3.1v33.5h-3.1V338z"/>
	<path fill="#FFFFFF" d="M813.6,324.5h3.1v47h-3.1V324.5z"/>
	<path fill="#FFFFFF" d="M821.8,381.2v-2.7c0.7,0.1,1.6,0.3,2.1,0.3c2.8,0,4.1-2,4.1-5.1V338h3v35.8c0,4.7-2.3,7.7-6.9,7.7
		C823.3,381.5,822.6,381.4,821.8,381.2z M827.7,325.4h3.6v4.4h-3.6V325.4z"/>
	<path fill="#FFFFFF" d="M840,355v-0.3c0-10.4,5.9-17.5,13.6-17.5c7.9,0,13.1,7,13.1,17.2v1.6h-23.6c0.4,8.5,5.7,13.3,11.6,13.3
		c4,0,6.9-1.7,9.3-4.1l1.9,2.1c-3,2.9-6.3,4.9-11.4,4.9C846.6,372.2,840,365.7,840,355z M863.5,353.3c-0.3-7.1-3.7-13.2-10-13.2
		c-5.6,0-10,5.3-10.4,13.2H863.5z"/>
	<path fill="#FFFFFF" d="M874.8,338h3v5.8c1.9-3.6,5.1-6.5,10.4-6.5c7,0,11.4,4.9,11.4,12.6v21.7h-3.1v-20.8
		c0-6.8-3.2-10.7-8.9-10.7c-5.6,0-9.9,4.6-9.9,11v20.5h-3V338z"/>
	<path fill="#FFFFFF" d="M105.2,402.6h3.1v47h-3.1V402.6z"/>
	<path fill="#FFFFFF" d="M117.1,433.1v-0.3c0-10.4,5.9-17.5,13.6-17.5c7.9,0,13.1,7,13.1,17.2v1.6h-23.6c0.4,8.5,5.7,13.3,11.6,13.3
		c4,0,6.9-1.7,9.3-4.1l1.9,2.1c-3,2.9-6.3,4.9-11.4,4.9C123.8,450.4,117.1,443.9,117.1,433.1z M140.6,431.4
		c-0.3-7.1-3.7-13.2-10-13.2c-5.6,0-10,5.3-10.4,13.2H140.6z"/>
	<path fill="#FFFFFF" d="M151.4,455.6l1.6-2.6c3.3,2.3,7.3,3.6,11.3,3.6c6.6,0,11-3.6,11-10.9v-5.9c-2.3,4-6.1,7.5-11.7,7.5
		c-6.9,0-13.5-5.9-13.5-15.8v-0.3c0-9.9,6.6-15.9,13.5-15.9c5.7,0,9.4,3.5,11.7,7.4v-6.6h3.1v29.8c0,4.3-1.4,7.6-3.6,9.9
		c-2.5,2.5-6.2,3.8-10.5,3.8C159.8,459.6,155.5,458.3,151.4,455.6z M175.5,431.6v-0.3c0-8.1-5.8-13-11.6-13c-5.8,0-10.6,4.8-10.6,13
		v0.2c0,8.1,4.9,13.1,10.6,13.1C169.7,444.6,175.5,439.5,175.5,431.6z"/>
	<path fill="#FFFFFF" d="M188.2,437.8v-21.7h3V437c0,6.8,3.3,10.6,8.9,10.6c5.5,0,9.8-4.5,9.8-10.9v-20.5h3.1v33.5H210v-5.8
		c-1.8,3.5-5.1,6.5-10.4,6.5C192.6,450.4,188.2,445.5,188.2,437.8z"/>
	<path fill="#FFFFFF" d="M221,439.9v-0.3c0-6.6,5.1-10.8,12.7-10.8c3.8,0,6.6,0.6,9.2,1.4v-2.4c0-6.1-3.5-9.2-9.4-9.2
		c-3.5,0-6.5,1-8.9,2.4l-1.2-2.7c3.1-1.5,6.4-2.6,10.3-2.6c3.8,0,6.9,1,9.1,3.3c2,1.9,3.1,4.9,3.1,8.7v22.1h-3v-5.3
		c-2,3.3-5.5,6.1-10.7,6.1C226.6,450.4,221,446.5,221,439.9z M243,437.8V433c-2.5-0.8-5.5-1.4-9.4-1.4c-6.1,0-9.4,3.3-9.4,7.9v0.3
		c0,4.8,3.6,7.8,8.3,7.8C238.3,447.6,243,443.3,243,437.8z"/>
	<path fill="#FFFFFF" d="M255.8,416.1h3v5.8c1.9-3.6,5.1-6.5,10.4-6.5c7,0,11.4,4.9,11.4,12.6v21.7h-3.1v-20.8
		c0-6.8-3.2-10.7-8.9-10.7c-5.6,0-9.9,4.6-9.9,11v20.5h-3V416.1z"/>
	<path fill="#FFFFFF" d="M288.5,433.1v-0.3c0-10.4,5.9-17.5,13.6-17.5c7.9,0,13.1,7,13.1,17.2v1.6h-23.6c0.4,8.5,5.7,13.3,11.6,13.3
		c4,0,6.9-1.7,9.3-4.1l1.9,2.1c-3,2.9-6.3,4.9-11.4,4.9C295.2,450.4,288.5,443.9,288.5,433.1z M312.1,431.4
		c-0.3-7.1-3.7-13.2-10-13.2c-5.6,0-10,5.3-10.4,13.2H312.1z"/>
	<path fill="#FFFFFF" d="M323.4,416.1h3v7.9c2.1-4.9,6.8-8.7,12.5-8.4v3.3h-0.3c-6.5,0-12.2,4.8-12.2,14v16.7h-3V416.1z"/>
	<path fill="#FFFFFF" d="M340.5,444.2h4.2v5.5h-4.2V444.2z"/>
	<path fill="#FFFFFF" d="M370.6,404.1h12.2c12.6,0,21.3,9.2,21.3,22.5v0.5c0,13.3-8.7,22.6-21.3,22.6h-12.2V404.1z M373.9,407.1
		v39.6h8.9c10.9,0,18.1-8,18.1-19.5v-0.5c0-11.5-7.2-19.6-18.2-19.6H373.9z"/>
	<path fill="#FFFFFF" d="M411.4,433.1v-0.3c0-10.4,5.9-17.5,13.6-17.5c7.9,0,13.1,7,13.1,17.2v1.6h-23.6c0.4,8.5,5.7,13.3,11.6,13.3
		c4,0,6.9-1.7,9.3-4.1l1.9,2.1c-3,2.9-6.3,4.9-11.4,4.9C418,450.4,411.4,443.9,411.4,433.1z M434.9,431.4c-0.3-7.1-3.7-13.2-10-13.2
		c-5.6,0-10,5.3-10.4,13.2H434.9z"/>
	<path fill="#FFFFFF" d="M446.2,416.1h3v5.8c1.9-3.6,5.1-6.5,10.4-6.5c7,0,11.4,4.9,11.4,12.6v21.7H468v-20.8
		c0-6.8-3.2-10.7-8.9-10.7c-5.6,0-9.9,4.6-9.9,11v20.5h-3V416.1z"/>
	<path fill="#FFFFFF" d="M498.2,418.9h-4.4v-2.8h4.4v-3.5c0-3.5,0.9-6.3,2.6-7.9c1.5-1.5,3.6-2.3,6.2-2.3c1.5,0,2.8,0.3,4,0.6v2.9
		c-1.4-0.5-2.7-0.7-4-0.7c-3.9,0-5.8,2.3-5.8,7.4v3.4h9.6v2.8h-9.6v30.7h-3V418.9z"/>
	<path fill="#FFFFFF" d="M514.2,433.1v-0.3c0-9.7,6.2-17.4,14.6-17.4c8.5,0,14.6,7.6,14.6,17.3v0.3c0,9.7-6.2,17.4-14.7,17.4
		C520.3,450.4,514.2,442.8,514.2,433.1z M540.2,433.1v-0.3c0-8.3-5.1-14.5-11.5-14.5c-6.4,0-11.3,6.3-11.3,14.5v0.3
		c0,8.3,5.1,14.5,11.4,14.5C535.3,447.5,540.2,441.3,540.2,433.1z M522.2,406.2h4v4.9h-4V406.2z M531.3,406.2h4v4.9h-4V406.2z"/>
	<path fill="#FFFFFF" d="M551.8,416.1h3v7.9c2.1-4.9,6.8-8.7,12.5-8.4v3.3H567c-6.5,0-12.2,4.8-12.2,14v16.7h-3V416.1z"/>
	<path fill="#FFFFFF" d="M570.8,433.1v-0.3c0-10.4,5.9-17.5,13.6-17.5c7.9,0,13.1,7,13.1,17.2v1.6h-23.6c0.4,8.5,5.7,13.3,11.6,13.3
		c4,0,6.9-1.7,9.3-4.1l1.9,2.1c-3,2.9-6.3,4.9-11.4,4.9C577.4,450.4,570.8,443.9,570.8,433.1z M594.3,431.4
		c-0.3-7.1-3.7-13.2-10-13.2c-5.6,0-10,5.3-10.4,13.2H594.3z"/>
	<path fill="#FFFFFF" d="M605.6,402.6h3v34l17.1-20.5h3.8l-12.2,14.4l12.8,19.1h-3.7L615.2,433l-6.6,7.6v9.1h-3V402.6z"/>
	<path fill="#FFFFFF" d="M633.6,433.1v-0.3c0-9.7,6.2-17.4,14.6-17.4c8.5,0,14.6,7.6,14.6,17.3v0.3c0,9.7-6.2,17.4-14.7,17.4
		C639.7,450.4,633.6,442.8,633.6,433.1z M659.5,433.1v-0.3c0-8.3-5.1-14.5-11.5-14.5c-6.4,0-11.3,6.3-11.3,14.5v0.3
		c0,8.3,5.1,14.5,11.4,14.5C654.7,447.5,659.5,441.3,659.5,433.1z"/>
	<path fill="#FFFFFF" d="M671.1,416.1h3v5.7c1.8-3.4,4.6-6.4,9.7-6.4c4.7,0,8.1,2.7,9.7,6.6c1.9-3.4,5-6.6,10.5-6.6
		c6.7,0,11,4.8,11,12.7v21.6h-3v-20.8c0-7-3.1-10.7-8.3-10.7c-4.9,0-9.1,4-9.1,10.9v20.6h-3.1v-21c0-6.8-3.1-10.5-8.3-10.5
		c-5.1,0-9.2,4.7-9.2,11v20.5h-3V416.1z"/>
	<path fill="#FFFFFF" d="M725.2,416.1h3v5.7c1.8-3.4,4.6-6.4,9.7-6.4c4.7,0,8.1,2.7,9.7,6.6c1.9-3.4,5-6.6,10.5-6.6
		c6.7,0,11,4.8,11,12.7v21.6h-3v-20.8c0-7-3.1-10.7-8.3-10.7c-4.9,0-9.1,4-9.1,10.9v20.6h-3.1v-21c0-6.8-3.1-10.5-8.3-10.5
		c-5.1,0-9.2,4.7-9.2,11v20.5h-3V416.1z"/>
	<path fill="#FFFFFF" d="M777.3,433.1v-0.3c0-10.4,5.9-17.5,13.6-17.5c7.9,0,13.1,7,13.1,17.2v1.6h-23.6c0.4,8.5,5.7,13.3,11.6,13.3
		c4,0,6.9-1.7,9.3-4.1l1.9,2.1c-3,2.9-6.3,4.9-11.4,4.9C783.9,450.4,777.3,443.9,777.3,433.1z M800.8,431.4
		c-0.3-7.1-3.7-13.2-10-13.2c-5.6,0-10,5.3-10.4,13.2H800.8z"/>
	<path fill="#FFFFFF" d="M812.1,416.1h3v7.9c2.1-4.9,6.8-8.7,12.5-8.4v3.3h-0.3c-6.5,0-12.2,4.8-12.2,14v16.7h-3V416.1z"/>
	<path fill="#FFFFFF" d="M850,416.1h3v7.2c2.4-4.2,6-7.9,11.7-7.9c6.8,0,13.6,6.1,13.6,17.2v0.5c0,11.1-6.8,17.3-13.6,17.3
		c-5.7,0-9.4-3.6-11.7-7.7v16.7h-3V416.1z M875.1,433.2v-0.5c0-9.1-4.9-14.5-10.7-14.5c-5.9,0-11.5,5.6-11.5,14.3v0.6
		c0,8.8,5.7,14.3,11.5,14.3C870.3,447.5,875.1,442.4,875.1,433.2z"/>
	<path fill="#FFFFFF" d="M884.4,439.9v-0.3c0-6.6,5.1-10.8,12.7-10.8c3.8,0,6.6,0.6,9.2,1.4v-2.4c0-6.1-3.5-9.2-9.4-9.2
		c-3.5,0-6.5,1-8.9,2.4l-1.2-2.7c3.1-1.5,6.4-2.6,10.3-2.6c3.8,0,6.9,1,9.1,3.3c2,1.9,3.1,4.9,3.1,8.7v22.1h-3v-5.3
		c-2,3.3-5.5,6.1-10.7,6.1C890,450.4,884.4,446.5,884.4,439.9z M906.4,437.8V433c-2.5-0.8-5.5-1.4-9.4-1.4c-6.1,0-9.4,3.3-9.4,7.9
		v0.3c0,4.8,3.6,7.8,8.3,7.8C901.7,447.6,906.4,443.3,906.4,437.8z M891.6,405.3c0-3.3,2.8-6.1,6.3-6.1s6.3,2.7,6.3,6.1
		c0,3.3-2.8,6.1-6.3,6.1S891.6,408.6,891.6,405.3z M901.9,405.3c0-2.3-1.8-4.2-4.1-4.2c-2.3,0-4.1,1.9-4.1,4.2
		c0,2.3,1.8,4.2,4.1,4.2C900.1,409.5,901.9,407.7,901.9,405.3z"/>
	<path fill="#FFFFFF" d="M103.6,505.3v-0.4c0-13.2,8.1-23.3,19.9-23.3c5.8,0,9.6,1.6,13.5,4.8l-2,2.6c-2.9-2.6-6.4-4.4-11.5-4.4
		c-9.4,0-16.5,8.5-16.5,20.3v0.3c0,12.2,6.6,20.4,16.9,20.4c4.4,0,8.4-1.7,11-3.7v-14.6h-12.6v-3H138v19c-3.3,2.7-8.4,5.2-14.3,5.2
		C111.3,528.4,103.6,518.7,103.6,505.3z"/>
	<path fill="#FFFFFF" d="M146.2,518v-0.3c0-6.6,5.1-10.8,12.7-10.8c3.8,0,6.6,0.6,9.2,1.4v-2.4c0-6.1-3.5-9.2-9.4-9.2
		c-3.5,0-6.5,1-8.9,2.4l-1.2-2.7c3.1-1.5,6.4-2.6,10.3-2.6c3.8,0,6.9,1,9.1,3.3c2,1.9,3.1,4.9,3.1,8.7v22.1h-3v-5.3
		c-2,3.3-5.5,6.1-10.7,6.1C151.7,528.5,146.2,524.7,146.2,518z M168.2,515.9v-4.8c-2.5-0.8-5.5-1.4-9.4-1.4c-6.1,0-9.4,3.3-9.4,7.9
		v0.3c0,4.8,3.6,7.8,8.3,7.8C163.4,525.7,168.2,521.5,168.2,515.9z"/>
	<path fill="#FFFFFF" d="M181.3,480.8h3.1v47h-3.1V480.8z"/>
	<path fill="#FFFFFF" d="M192.8,518v-0.3c0-6.6,5.1-10.8,12.7-10.8c3.8,0,6.6,0.6,9.2,1.4v-2.4c0-6.1-3.5-9.2-9.4-9.2
		c-3.5,0-6.5,1-8.9,2.4l-1.2-2.7c3.1-1.5,6.4-2.6,10.3-2.6c3.8,0,6.9,1,9.1,3.3c2,1.9,3.1,4.9,3.1,8.7v22.1h-3v-5.3
		c-2,3.3-5.5,6.1-10.7,6.1C198.3,528.5,192.8,524.7,192.8,518z M214.8,515.9v-4.8c-2.5-0.8-5.5-1.4-9.4-1.4c-6.1,0-9.4,3.3-9.4,7.9
		v0.3c0,4.8,3.6,7.8,8.3,7.8C210,525.7,214.8,521.5,214.8,515.9z M210.1,481l3.6,1.9l-6.4,6.6h-2.4L210.1,481z"/>
	<path fill="#FFFFFF" d="M227.5,494.3h3v7.2c2.4-4.2,6-7.9,11.7-7.9c6.8,0,13.6,6.1,13.6,17.2v0.5c0,11.1-6.8,17.3-13.6,17.3
		c-5.7,0-9.4-3.6-11.7-7.7v16.7h-3V494.3z M252.6,511.3v-0.5c0-9.1-4.9-14.5-10.7-14.5c-5.9,0-11.5,5.6-11.5,14.3v0.6
		c0,8.8,5.7,14.3,11.5,14.3C247.8,525.6,252.6,520.6,252.6,511.3z"/>
	<path fill="#FFFFFF" d="M261.9,518v-0.3c0-6.6,5.1-10.8,12.7-10.8c3.8,0,6.6,0.6,9.2,1.4v-2.4c0-6.1-3.5-9.2-9.4-9.2
		c-3.5,0-6.5,1-8.9,2.4l-1.2-2.7c3.1-1.5,6.4-2.6,10.3-2.6c3.8,0,6.9,1,9.1,3.3c2,1.9,3.1,4.9,3.1,8.7v22.1h-3v-5.3
		c-2,3.3-5.5,6.1-10.7,6.1C267.5,528.5,261.9,524.7,261.9,518z M283.9,515.9v-4.8c-2.5-0.8-5.5-1.4-9.4-1.4c-6.1,0-9.4,3.3-9.4,7.9
		v0.3c0,4.8,3.6,7.8,8.3,7.8C279.2,525.7,283.9,521.5,283.9,515.9z"/>
	<path fill="#FFFFFF" d="M296.2,533.8l1.6-2.6c3.3,2.3,7.3,3.6,11.3,3.6c6.6,0,11-3.6,11-10.9V518c-2.3,4-6.1,7.5-11.7,7.5
		c-6.9,0-13.5-5.9-13.5-15.8v-0.3c0-9.9,6.6-15.9,13.5-15.9c5.7,0,9.4,3.5,11.7,7.4v-6.6h3.1V524c0,4.3-1.4,7.6-3.6,9.9
		c-2.5,2.5-6.2,3.8-10.5,3.8C304.5,537.7,300.2,536.4,296.2,533.8z M320.3,509.7v-0.3c0-8.1-5.8-13-11.6-13c-5.8,0-10.6,4.8-10.6,13
		v0.2c0,8.1,4.9,13.1,10.6,13.1C314.5,522.7,320.3,517.6,320.3,509.7z"/>
	<path fill="#FFFFFF" d="M331.5,511.2v-0.3c0-9.7,6.2-17.4,14.6-17.4c8.5,0,14.6,7.6,14.6,17.3v0.3c0,9.7-6.2,17.4-14.7,17.4
		C337.6,528.5,331.5,521,331.5,511.2z M357.5,511.2v-0.3c0-8.3-5.1-14.5-11.5-14.5c-6.4,0-11.3,6.3-11.3,14.5v0.3
		c0,8.3,5.1,14.5,11.4,14.5C352.6,525.6,357.5,519.4,357.5,511.2z"/>
	<path fill="#FFFFFF" d="M365.9,523.6l1.9-2.3c3.2,2.8,6.6,4.2,10.2,4.2c4.1,0,7.3-2.5,7.3-6.3v-0.1c0-3.3-2.9-5.1-7.8-7.2
		c-5.5-2.3-9.8-4.4-9.8-9.4v-0.1c0-5.1,4.2-8.7,10-8.7c3.9,0,7.7,1.6,10.4,3.6l-1.8,2.4c-2.6-2-5.6-3.2-8.7-3.2
		c-4,0-6.8,2.3-6.8,5.5v0.1c0,3.3,3.1,4.8,8,6.9c5.8,2.5,9.6,4.8,9.6,9.8v0.1c0,5.7-4.7,9.4-10.5,9.4
		C373.6,528.4,369.2,526.6,365.9,523.6z"/>
	<path fill="#FFFFFF" d="M394.7,511.2v-0.3c0-9.7,6.2-17.4,14.6-17.4c8.5,0,14.6,7.6,14.6,17.3v0.3c0,9.7-6.2,17.4-14.7,17.4
		C400.9,528.5,394.7,521,394.7,511.2z M420.7,511.2v-0.3c0-8.3-5.1-14.5-11.5-14.5c-6.4,0-11.3,6.3-11.3,14.5v0.3
		c0,8.3,5.1,14.5,11.4,14.5C415.8,525.6,420.7,519.4,420.7,511.2z M402.7,484.4h4v4.9h-4V484.4z M411.9,484.4h4v4.9h-4V484.4z"/>
	<path fill="#FFFFFF" d="M429.9,518v-0.3c0-6.6,5.1-10.8,12.7-10.8c3.8,0,6.6,0.6,9.2,1.4v-2.4c0-6.1-3.5-9.2-9.4-9.2
		c-3.5,0-6.5,1-8.9,2.4l-1.2-2.7c3.1-1.5,6.4-2.6,10.3-2.6c3.8,0,6.9,1,9.1,3.3c2,1.9,3.1,4.9,3.1,8.7v22.1h-3v-5.3
		c-2,3.3-5.5,6.1-10.7,6.1C435.4,528.5,429.9,524.7,429.9,518z M451.9,515.9v-4.8c-2.5-0.8-5.5-1.4-9.4-1.4c-6.1,0-9.4,3.3-9.4,7.9
		v0.3c0,4.8,3.6,7.8,8.3,7.8C447.2,525.7,451.9,521.5,451.9,515.9z"/>
	<path fill="#FFFFFF" d="M464.7,494.3h3v7.9c2.1-4.9,6.8-8.7,12.5-8.4v3.3h-0.3c-6.5,0-12.2,4.8-12.2,14v16.7h-3V494.3z"/>
	<path fill="#FFFFFF" d="M487.1,494.3h3v5.8c1.9-3.6,5.1-6.5,10.4-6.5c7,0,11.4,4.9,11.4,12.6v21.7h-3.1V507
		c0-6.8-3.2-10.7-8.9-10.7c-5.6,0-9.9,4.6-9.9,11v20.5h-3V494.3z"/>
	<path fill="#FFFFFF" d="M519.4,518v-0.3c0-6.6,5.1-10.8,12.7-10.8c3.8,0,6.6,0.6,9.2,1.4v-2.4c0-6.1-3.5-9.2-9.4-9.2
		c-3.5,0-6.5,1-8.9,2.4l-1.2-2.7c3.1-1.5,6.4-2.6,10.3-2.6c3.8,0,6.9,1,9.1,3.3c2,1.9,3.1,4.9,3.1,8.7v22.1h-3v-5.3
		c-2,3.3-5.5,6.1-10.7,6.1C525,528.5,519.4,524.7,519.4,518z M541.4,515.9v-4.8c-2.5-0.8-5.5-1.4-9.4-1.4c-6.1,0-9.4,3.3-9.4,7.9
		v0.3c0,4.8,3.6,7.8,8.3,7.8C536.7,525.7,541.4,521.5,541.4,515.9z"/>
	<path fill="#FFFFFF" d="M553.5,522.3h4.2v5.5h-4.2V522.3z"/>
</g>
</svg>
