<?xml version="1.0" encoding="utf-8"?>
<!-- Generator: Adobe Illustrator 18.1.0, SVG Export Plug-In . SVG Version: 6.00 Build 0)  -->
<svg version="1.1" id="Lager_1" xmlns="http://www.w3.org/2000/svg" xmlns:xlink="http://www.w3.org/1999/xlink" x="0px" y="0px"
	 viewBox="0 0 225 225" enable-background="new 0 0 225 225" xml:space="preserve">
<g>
	<defs>
		<circle id="SVGID_1_" cx="112.5" cy="112.5" r="107.5"/>
	</defs>
	<clipPath id="SVGID_2_">
		<use xlink:href="#SVGID_1_"  overflow="visible"/>
	</clipPath>
	<g clip-path="url(#SVGID_2_)">
		<g opacity="0.25">
			<path fill="#37BBD2" d="M146.7,92.3H31.5c-6.6,0-12-5.4-12-12V5.7c0-6.6,5.4-12,12-12h115.2c6.6,0,12,5.4,12,12v74.6
				C158.7,86.9,153.3,92.3,146.7,92.3z"/>
			<path fill="#37BBD2" d="M97.5,70.9l0.4-17l-23.3-0.5l-0.4,17c-0.4,17,37.8,36.5,63.6,37C115.9,106.9,97.2,87.6,97.5,70.9z"/>
		</g>
		<path fill="#C0C0C0" stroke="#FFFFFF" stroke-width="4" stroke-miterlimit="10" d="M246.4,170.2l-19.3-34.4c0,0,0,0,0,0l-3.4-6
			c-5.9-10.6-17.8-15.7-29.1-13.4l-4.6-8.1c4.7-6.4,7.9-14.4,8.8-23.4c2.4-23.2-11.2-43.6-30.5-45.7c-16.2-1.7-31.2,10.1-37.1,27.6
			c0,0,0,0-0.1,0c-1.8,5.3-8.2,19-16.2,19.9c5,5.1,9.8,6.5,15,7.4v0c0.4,1.9,1,3.7,1.7,5.4c8.8-0.4,18.1-3.4,28.6-9.4
			c-3.5,13.8-10.7,23.5-16.1,26.9c4.4,3.4,9.6,5.6,15.3,6.2c3.8,0.4,7.5,0,11.1-0.9l3.2,5.8c-7.8,8.4-9.7,21.3-3.8,31.8l3.4,6l0,0
			l19.3,34.4L246.4,170.2z"/>
		<g>
			<path fill="#37BBD2" d="M120.8,224.5H236c6.6,0,12-5.4,12-12v-74.6c0-6.6-5.4-12-12-12H120.8c-6.6,0-12,5.4-12,12v74.6
				C108.8,219.1,114.2,224.5,120.8,224.5z"/>
			<path fill="#37BBD2" d="M109.9,151.8l12.7-9.6l13.1,17.5l-12.7,9.6c-12.7,9.5-49.7-5.3-64.2-24.6
				C71.1,161.1,97.3,161.3,109.9,151.8z"/>
		</g>
		<path fill="#808080" stroke="#FFFFFF" stroke-width="4" stroke-miterlimit="10" d="M96.3,123.1C85.5,122,77,103.7,74.6,96.5
			c0,0,0,0-0.1,0c-7.8-23.5-27.9-39.3-49.6-37c-25.8,2.7-44.1,30.1-40.8,61.2c0.5,4.8,1.5,9.3,2.9,13.7l-8.4,10.1l-6.1-5.1
			c-7.3-6.1-18.2-5.1-24.3,2.2l-17.7,21.3l0,0l-34.3,41.2l63.2,52.7l21.5-25.8c0,0,0,0,0,0l30.6-36.7c6.1-7.3,5.1-18.2-2.2-24.3
			L3,164.8l2.3-2.8c9,7.3,20,11.1,31.4,9.9c7.6-0.8,14.5-3.7,20.4-8.2c-7.2-4.5-16.9-17.5-21.5-36c14.1,8,26.6,12.1,38.3,12.6
			c0.9-2.3,1.6-4.8,2.2-7.3v0C83.1,131.8,89.6,130,96.3,123.1z"/>
	</g>
</g>
<circle fill="none" stroke="#C0C0C0" stroke-width="4" stroke-miterlimit="10" cx="112.5" cy="112.5" r="107.5"/>
<g>
</g>
<g>
</g>
<g>
</g>
<g>
</g>
<g>
</g>
<g>
</g>
</svg>
