<?xml version="1.0" encoding="UTF-8" standalone="no"?>
<svg
   xmlns:dc="http://purl.org/dc/elements/1.1/"
   xmlns:cc="http://creativecommons.org/ns#"
   xmlns:rdf="http://www.w3.org/1999/02/22-rdf-syntax-ns#"
   xmlns:svg="http://www.w3.org/2000/svg"
   xmlns="http://www.w3.org/2000/svg"
   viewBox="0 0 354.32501 354.32501"
   height="354.32501"
   width="354.32501"
   xml:space="preserve"
   version="1.1"
   id="svg2"><metadata
     id="metadata8"><rdf:RDF><cc:Work
         rdf:about=""><dc:format>image/svg+xml</dc:format><dc:type
           rdf:resource="http://purl.org/dc/dcmitype/StillImage" /></cc:Work></rdf:RDF></metadata><defs
     id="defs6"><clipPath
       id="clipPath18"
       clipPathUnits="userSpaceOnUse"><path
         id="path20"
         d="M 0,2834.64 0,0 l 2834.65,0 0,2834.64 -2834.65,0 z" /></clipPath></defs><g
     transform="matrix(1.25,0,0,-1.25,0,354.325)"
     id="g10"><g
       transform="scale(0.1,0.1)"
       id="g12"><g
         id="g14"><g
           clip-path="url(#clipPath18)"
           id="g16"><path
             id="path22"
             style="fill:#231f20;fill-opacity:1;fill-rule:nonzero;stroke:none"
             d="m 1237.02,1237.09 360.582,0 0,360.5 -360.582,0 0,-360.5 z" /><path
             id="path24"
             style="fill:#231f20;fill-opacity:1;fill-rule:nonzero;stroke:none"
             d="m 818.203,1237.09 360.508,0 0,360.5 -360.508,0 0,-360.5 z" /><path
             id="path26"
             style="fill:#231f20;fill-opacity:1;fill-rule:nonzero;stroke:none"
             d="m 1237.02,1649.96 360.582,0 0,360.492 -360.582,0 0,-360.492 z" /><path
             id="path28"
             style="fill:#231f20;fill-opacity:1;fill-rule:nonzero;stroke:none"
             d="m 1655.95,824.23 360.473,0 0,360.539 -360.473,0 0,-360.539 z" /><path
             id="path30"
             style="fill:#231f20;fill-opacity:1;fill-rule:nonzero;stroke:none"
             d="m 818.203,824.23 360.508,0 0,360.539 -360.508,0 0,-360.539 z" /><path
             id="path32"
             style="fill:#231f20;fill-opacity:1;fill-rule:nonzero;stroke:none"
             d="m 1655.95,1237.09 360.473,0 0,360.5 -360.473,0 0,-360.5 z" /><path
             id="path34"
             style="fill:#231f20;fill-opacity:1;fill-rule:nonzero;stroke:none"
             d="m 2107.82,852.82 c 0,-69.55 -56.36,-125.992 -125.94,-125.992 l -1129.06,0 c -69.59,0 -125.988,56.442 -125.988,125.992 l 0,1129.05 c 0,69.57 56.398,125.95 125.988,125.95 l 1129.06,0 c 69.58,0 125.94,-56.38 125.94,-125.95 l 0,-1129.05 z M 1417.34,2834.64 C 634.547,2834.64 0,2200.09 0,1417.36 0,634.559 634.547,0 1417.34,0 c 782.77,0 1417.31,634.559 1417.31,1417.36 0,782.73 -634.54,1417.28 -1417.31,1417.28" /><path
             id="path36"
             style="fill:#231f20;fill-opacity:1;fill-rule:nonzero;stroke:none"
             d="m 1655.95,1649.96 360.473,0 0,360.492 -360.473,0 0,-360.492 z" /></g></g></g></g></svg>