<?xml version="1.0" encoding="UTF-8" standalone="no"?>
<svg
   xmlns:dc="http://purl.org/dc/elements/1.1/"
   xmlns:cc="http://creativecommons.org/ns#"
   xmlns:rdf="http://www.w3.org/1999/02/22-rdf-syntax-ns#"
   xmlns:svg="http://www.w3.org/2000/svg"
   xmlns="http://www.w3.org/2000/svg"
   viewBox="0 0 743.84998 534.09998"
   height="534.09998"
   width="743.84998"
   xml:space="preserve"
   version="1.1"
   id="svg2"><metadata
     id="metadata8"><rdf:RDF><cc:Work
         rdf:about=""><dc:format>image/svg+xml</dc:format><dc:type
           rdf:resource="http://purl.org/dc/dcmitype/StillImage" /></cc:Work></rdf:RDF></metadata><defs
     id="defs6"><clipPath
       id="clipPath18"
       clipPathUnits="userSpaceOnUse"><path
         id="path20"
         d="M 0,4272.79 0,0 l 5950.82,0 0,4272.79 -5950.82,0 z" /></clipPath></defs><g
     transform="matrix(1.25,0,0,-1.25,0,534.1)"
     id="g10"><g
       transform="scale(0.1,0.1)"
       id="g12"><g
         id="g14"><g
           clip-path="url(#clipPath18)"
           id="g16"><path
             id="path22"
             style="fill:none;stroke:#231f20;stroke-width:0.1;stroke-linecap:butt;stroke-linejoin:miter;stroke-miterlimit:10;stroke-dasharray:none;stroke-opacity:1"
             d="m 1102.88,881.082 3.94,9.309" /><path
             id="path24"
             style="fill:#231f20;fill-opacity:1;fill-rule:nonzero;stroke:none"
             d="m 5004.89,744.93 -1820.18,0 c 0,0 -1798.46,2193.93 -1809.25,2187.23 l 0,-1843.73 c 0,-228.289 299.01,-325.032 299.01,-325.032 0.08,0.364 7.82,-18.468 7.96,-18.468 l -749.879,0 c 0.207,0.66 7.508,17.922 7.621,18.031 0.164,0.141 180.928,51.687 180.928,325.679 0,534.56 -1.71,1572.65 -1.02,2111.3 0.17,152.14 -159.892,287.91 -329.162,338.67 l -8.223,19.23 701.625,0 1686.59,-2107.74 -0.21,1737.12 c 0,167.44 -127.65,294.92 -294.93,351.64 l -8.23,18.98 1979.85,0 0,-562.58 c -8.39,4 -18.07,7.73 -18.07,7.73 0,0 -65.47,199.31 -216.39,278.63 -51.07,26.83 -344.47,17.59 -985.82,17.59 0,-30.23 0,-883.97 0,-883.97 0,0 734.68,0 977.35,0 167.74,0 210.02,157.03 211.98,157.82 1.94,0.83 6.57,2.76 18.21,7.9 0,0 0.95,-414.09 0.95,-612.13 -10.16,4.25 -18.32,7.8 -18.32,7.8 0,0 -44.75,183.6 -212.95,183.6 l -977.22,0 0,-1160.32 c 628.3,0 1017.32,-25.84 1191.88,63.83 134.62,70.66 228.8,331.76 228.8,331.76 0,0 9.2,3.64 18.82,8.19 -21.4,-227.03 -40.15,-423.838 -61.72,-658.76 z m 655.74,3246.18 -5370.427,0 0,-3717.188 5370.427,0 0,3717.188" /><path
             id="path26"
             style="fill:#231f20;fill-opacity:1;fill-rule:nonzero;stroke:none"
             d="m 5805.64,136.949 -5660.55,0 0,3991.121 5660.55,0 0,-3991.121 z M 0,4272.79 0,0 l 5950.82,0 0,4272.79 -5950.82,0" /></g></g></g></g></svg>