<?xml version="1.0" encoding="UTF-8" standalone="no"?>
<svg
   xmlns:dc="http://purl.org/dc/elements/1.1/"
   xmlns:cc="http://creativecommons.org/ns#"
   xmlns:rdf="http://www.w3.org/1999/02/22-rdf-syntax-ns#"
   xmlns:svg="http://www.w3.org/2000/svg"
   xmlns="http://www.w3.org/2000/svg"
   viewBox="0 0 354.32501 354.32501"
   height="354.32501"
   width="354.32501"
   xml:space="preserve"
   version="1.1"
   id="svg2"><metadata
     id="metadata8"><rdf:RDF><cc:Work
         rdf:about=""><dc:format>image/svg+xml</dc:format><dc:type
           rdf:resource="http://purl.org/dc/dcmitype/StillImage" /></cc:Work></rdf:RDF></metadata><defs
     id="defs6"><clipPath
       id="clipPath18"
       clipPathUnits="userSpaceOnUse"><path
         id="path20"
         d="M 0,2834.65 0,0 l 2834.65,0 0,2834.65 -2834.65,0 z" /></clipPath></defs><g
     transform="matrix(1.25,0,0,-1.25,0,354.325)"
     id="g10"><g
       transform="scale(0.1,0.1)"
       id="g12"><g
         id="g14"><g
           clip-path="url(#clipPath18)"
           id="g16"><path
             id="path22"
             style="fill:#231f20;fill-opacity:1;fill-rule:nonzero;stroke:none"
             d="m 1930.73,1131.85 250.941,0 0,85.1484 -250.941,0 0,-85.1484 z" /><path
             id="path24"
             style="fill:#231f20;fill-opacity:1;fill-rule:nonzero;stroke:none"
             d="m 1482.55,1145.29 89.6289,0 0,98.6016 -89.6289,0 0,-98.6016 z" /><path
             id="path26"
             style="fill:#231f20;fill-opacity:1;fill-rule:nonzero;stroke:none"
             d="m 717.031,1351.56 207.461,0 -103.074,309.12 -104.387,-309.12" /><path
             id="path28"
             style="fill:#231f20;fill-opacity:1;fill-rule:nonzero;stroke:none"
             d="m 2392.29,1414.15 -649.79,0 0,143.39 94.06,0 13.41,85.17 -80.59,0 0,134.42 107.51,0 13.48,67.19 -138.96,0 0,147.93 618.45,0 0,-147.93 -313.68,0 -17.94,-67.19 273.39,0 0,-219.59 80.66,0 0,-143.39 z m -49.27,-461.509 -161.35,0 0,44.75 -250.94,0 0,-44.75 -156.87,0 0,407.719 569.16,0 0,-407.719 z m -613.93,828.969 -421.29,0 0,147.88 125.45,0 c -5.96,29.85 -13.45,58.26 -22.38,85.12 l 179.26,13.46 c 2.91,-11.98 7.41,-29.89 13.41,-53.77 3.01,-17.91 5.95,-32.89 8.97,-44.81 l 116.58,0 0,-147.88 z m -17.98,-179.26 -380.9,0 0,134.43 380.9,0 0,-134.43 z m 0,-174.73 -380.9,0 0,134.44 380.9,0 0,-134.44 z m 0,-470.511 -138.93,0 0,53.761 -89.63,0 0,-53.761 -147.87,0 0,430.171 376.43,0 0,-430.171 z M 1054.62,972 l -70.475,206.07 -326.774,0 -69.156,-206.07 -197.918,0 340.324,954.39 187.024,0 340.315,-954.39 -203.34,0 z m 362.67,1862.65 C 634.605,2834.65 0,2200.07 0,1417.41 0,634.641 634.605,0 1417.29,0 c 782.79,0 1417.36,634.641 1417.36,1417.41 0,782.66 -634.57,1417.24 -1417.36,1417.24" /><path
             id="path30"
             style="fill:#231f20;fill-opacity:1;fill-rule:nonzero;stroke:none"
             d="m 1997.98,1557.54 152.33,0 0,85.17 -134.45,0 -17.88,-85.17" /></g></g></g></g></svg>