<?xml version="1.0" encoding="UTF-8" standalone="no"?>
<svg
   xmlns:dc="http://purl.org/dc/elements/1.1/"
   xmlns:cc="http://creativecommons.org/ns#"
   xmlns:rdf="http://www.w3.org/1999/02/22-rdf-syntax-ns#"
   xmlns:svg="http://www.w3.org/2000/svg"
   xmlns="http://www.w3.org/2000/svg"
   viewBox="0 0 354.32501 354.32501"
   height="354.32501"
   width="354.32501"
   xml:space="preserve"
   version="1.1"
   id="svg2"><metadata
     id="metadata8"><rdf:RDF><cc:Work
         rdf:about=""><dc:format>image/svg+xml</dc:format><dc:type
           rdf:resource="http://purl.org/dc/dcmitype/StillImage" /></cc:Work></rdf:RDF></metadata><defs
     id="defs6"><clipPath
       id="clipPath18"
       clipPathUnits="userSpaceOnUse"><path
         id="path20"
         d="M 0,2834.64 0,0 l 2834.65,0 0,2834.64 -2834.65,0 z" /></clipPath></defs><g
     transform="matrix(1.25,0,0,-1.25,0,354.325)"
     id="g10"><g
       transform="scale(0.1,0.1)"
       id="g12"><g
         id="g14"><g
           clip-path="url(#clipPath18)"
           id="g16"><path
             id="path22"
             style="fill:#231f20;fill-opacity:1;fill-rule:nonzero;stroke:none"
             d="m 2234.59,1185.62 c -46.95,-68.95 -111.23,-127.25 -193.3,-174.86 6.7,-15.78 13.37,-30.26 20.28,-43.479 7.17,-13.23 15.32,-25.972 24.98,-38.172 9.4,-12.281 16.77,-21.781 22.23,-28.679 5.15,-6.93 13.83,-16.711 25.71,-29.27 11.86,-12.519 19.51,-20.781 22.75,-24.762 0.74,-0.589 1.94,-2.058 3.93,-4.386 1.95,-2.383 3.47,-3.992 4.46,-4.973 1,-0.988 2.46,-2.617 3.94,-4.969 1.75,-2.34 2.95,-4.05 3.44,-5.422 0.79,-1.386 1.49,-2.976 2.49,-4.929 0.99,-1.989 1.74,-3.981 1.99,-5.957 0.5,-1.981 0.5,-4.192 0.5,-6.532 0,-2.23 -0.26,-4.468 -0.97,-6.449 -2.02,-9.121 -6.2,-16.429 -12.87,-21.711 -6.71,-5.32 -13.87,-7.558 -21.74,-6.949 -33.13,4.578 -61.34,9.848 -85.27,15.82 -101.58,26.45 -193.27,68.7 -275.34,126.789 -59.3,-10.531 -117.43,-15.82 -174.22,-15.82 -178.98,0 -334.68,43.488 -467.44,130.75 38.34,-2.7 67.24,-3.95 87.04,-3.95 106.51,0 208.33,14.84 306.19,44.48 97.65,29.79 184.9,72.29 261.51,127.76 82.34,60.83 145.82,130.77 190.08,209.97 44.24,79.23 66.26,163.12 66.26,251.61 0,50.79 -7.45,100.98 -22.77,150.53 85.26,-46.82 152.51,-105.7 202.2,-176.35 49.42,-70.58 74.14,-146.56 74.14,-227.77 0,-79.17 -23.52,-153.37 -70.2,-222.32 z M 777.578,1043.34 c -23.726,-5.96 -52.18,-16.02 -85.016,-16.02 l -2.949,0 c -7.445,0 -14.117,2.83 -20.57,8.11 -6.168,5.17 -9.895,12.32 -11.309,20.85 -0.539,1.99 -1.035,4.1 -1.035,6.47 0,2.38 0.25,4.45 0.496,6.45 0.539,1.97 1.028,3.97 1.953,5.92 0.993,2.02 2.024,3.73 2.524,4.94 0.707,1.38 1.98,3.26 3.433,5.45 1.707,2.35 2.981,4.13 3.938,5.13 0.996,0.95 2.519,2.54 4.434,4.92 2.019,2.23 3.515,3.69 4.011,4.45 3.442,3.96 11.102,12.22 22.946,24.68 11.914,12.51 20.285,22.27 25.754,29.29 5.167,6.95 12.589,16.47 22.195,28.69 9.652,12.24 17.812,24.93 24.762,38.07 6.878,13.18 13.832,27.79 20.218,43.61 -81.793,47.61 -146.058,106.07 -193.019,175.36 -46.961,69.34 -70.442,143.22 -70.442,221.82 0,91.72 31.176,176.63 93.211,254.59 62,77.86 146.805,139.4 254.059,184.65 107.258,45.18 223.948,67.81 350.008,67.81 126.26,0 242.96,-22.63 350.21,-67.81 107.26,-45.25 192.07,-106.79 254.07,-184.65 62.03,-77.96 93.21,-162.87 93.21,-254.59 0,-91.79 -31.18,-176.59 -93.21,-254.59 -62,-77.81 -146.81,-139.49 -254.07,-184.72 -107.25,-45.21 -223.95,-67.74 -350.21,-67.74 -56.65,0 -114.71,5.11 -174.3,15.75 -81.782,-58.09 -173.47,-100.43 -275.302,-126.89 z m 639.782,1791.3 C 634.57,2834.64 0,2200.09 0,1417.37 0,634.59 634.57,0 1417.36,0 c 782.72,0 1417.29,634.59 1417.29,1417.37 0,782.72 -634.57,1417.27 -1417.29,1417.27" /></g></g></g></g></svg>