<?xml version="1.0" encoding="UTF-8" standalone="no"?>
<svg
   xmlns:dc="http://purl.org/dc/elements/1.1/"
   xmlns:cc="http://creativecommons.org/ns#"
   xmlns:rdf="http://www.w3.org/1999/02/22-rdf-syntax-ns#"
   xmlns:svg="http://www.w3.org/2000/svg"
   xmlns="http://www.w3.org/2000/svg"
   viewBox="0 0 354.32501 354.32501"
   height="354.32501"
   width="354.32501"
   xml:space="preserve"
   version="1.1"
   id="svg2"><metadata
     id="metadata8"><rdf:RDF><cc:Work
         rdf:about=""><dc:format>image/svg+xml</dc:format><dc:type
           rdf:resource="http://purl.org/dc/dcmitype/StillImage" /></cc:Work></rdf:RDF></metadata><defs
     id="defs6"><clipPath
       id="clipPath18"
       clipPathUnits="userSpaceOnUse"><path
         id="path20"
         d="M 0,2834.64 0,0 l 2834.64,0 0,2834.64 -2834.64,0 z" /></clipPath></defs><g
     transform="matrix(1.25,0,0,-1.25,0,354.325)"
     id="g10"><g
       transform="scale(0.1,0.1)"
       id="g12"><g
         id="g14"><g
           clip-path="url(#clipPath18)"
           id="g16"><path
             id="path22"
             style="fill:#231f20;fill-opacity:1;fill-rule:nonzero;stroke:none"
             d="m 1417.3,1083.02 c -184.67,0 -334.34,149.71 -334.34,334.38 0,184.64 149.67,334.34 334.34,334.34 184.65,0 334.35,-149.7 334.35,-334.34 0,-184.67 -149.7,-334.38 -334.35,-334.38 z m -0.03,953.64 c -341.96,0 -619.243,-277.25 -619.243,-619.26 0,-342.03 277.283,-619.349 619.243,-619.349 342.04,0 619.32,277.319 619.32,619.349 0,342.01 -277.28,619.26 -619.32,619.26" /><path
             id="path24"
             style="fill:#231f20;fill-opacity:1;fill-rule:nonzero;stroke:none"
             d="m 1417.27,468.648 c -523.907,0 -948.653,424.813 -948.653,948.772 0,523.91 424.746,948.69 948.653,948.69 523.98,0 948.72,-424.78 948.72,-948.69 0,-523.959 -424.74,-948.772 -948.72,-948.772 z m 0.11,2365.992 C 634.566,2834.64 0,2200.05 0,1417.33 0,634.559 634.566,0 1417.38,0 c 782.74,0 1417.26,634.559 1417.26,1417.33 0,782.72 -634.52,1417.31 -1417.26,1417.31" /></g></g></g></g></svg>