<?xml version="1.0" encoding="UTF-8" standalone="no"?>
<!-- Created with Inkscape (http://www.inkscape.org/) -->

<svg
   xmlns:dc="http://purl.org/dc/elements/1.1/"
   xmlns:cc="http://creativecommons.org/ns#"
   xmlns:rdf="http://www.w3.org/1999/02/22-rdf-syntax-ns#"
   xmlns:svg="http://www.w3.org/2000/svg"
   xmlns="http://www.w3.org/2000/svg"
   xmlns:inkscape="http://www.inkscape.org/namespaces/inkscape"
   version="1.1"
   width="354.32501"
   height="354.32501"
   id="svg2"
   xml:space="preserve"><metadata
     id="metadata8"><rdf:RDF><cc:Work
         rdf:about=""><dc:format>image/svg+xml</dc:format><dc:type
           rdf:resource="http://purl.org/dc/dcmitype/StillImage" /></cc:Work></rdf:RDF></metadata><defs
     id="defs6"><clipPath
       id="clipPath18"><path
         d="M 0,2834.64 0,0 l 2834.64,0 0,2834.64 -2834.64,0 z"
         inkscape:connector-curvature="0"
         id="path20" /></clipPath></defs><g
     transform="matrix(1.25,0,0,-1.25,0,354.325)"
     id="g10"><g
       transform="scale(0.1,0.1)"
       id="g12"><g
         id="g14"><g
           clip-path="url(#clipPath18)"
           id="g16"><path
             d="m 1621.85,255.059 c -2.27,11.91 -3.65,22.121 -3.65,29.429 -1.03,9.723 3.23,23.09 12.91,39.731 10.14,16.562 14.72,29.011 14.72,37.742 -19.33,4.68 -26.74,20.777 -22.09,48.019 2.76,18.379 20.24,42.809 53.44,73.782 23.48,20.707 30.97,50.289 22.59,88.488 -3.65,16.141 -6.87,39.191 -9.26,70.121 -2.76,30.93 -5,52.109 -7.76,64.52 0,-3.692 6,-6.922 17.91,-10.11 11.6,-3.23 18.51,-6.883 21.21,-12.031 2.37,3.73 5.61,10.691 9.33,20.262 3.58,9.707 7.34,17.16 11.03,22.16 2.31,3.699 7.37,8.34 15.68,13.906 7.84,5.434 12.91,8.692 15.67,10.082 2.3,1.379 7.81,5.07 16.64,12.051 8.3,6.848 15.64,11.949 21.17,15.641 5.57,3.699 12.95,6.5 22.13,8.339 9.23,1.809 15.71,-0.921 19.38,-8.339 6.02,-7.454 4.67,-18.903 -3.67,-34.051 -8.76,-15.321 -8.76,-26.321 0,-32.34 0.89,3.687 2.21,11.41 3.67,23.969 0.91,12.41 4.67,21.64 11.06,27.711 7.41,7.257 14.33,11.449 21.17,12.8 6.56,1.45 12.98,0.528 18.52,-2.761 5.46,-3.239 11.91,-7.321 19.28,-12.809 7.43,-5.57 13.95,-8.832 20.3,-10.211 18.47,-5.93 40.57,-19.84 66.5,-40.551 -1.39,1.352 -1.39,2.77 0,4.61 0.92,1.851 3.65,3.73 7.37,5.57 3.7,1.84 6.89,3.66 10.15,5.473 2.74,1.867 6.46,3.218 10.04,4.609 l 5.61,1.867 c 8.3,0 14.78,0.434 18.47,1.852 3.65,1.34 8.73,0 15.68,-3.719 6.92,-3.699 11.45,-6.422 13.86,-8.242 2.24,-1.84 6.82,-5.07 12.81,-10.168 6.07,-5.109 10.71,-8.801 12.91,-11.152 3.69,-2.11 10.64,-6.829 20.4,-12.829 9.64,-6.058 17.41,-11.14 23.05,-14.75 5.42,-3.691 10.57,-9.261 14.65,-16.671 4.22,-7.309 6.07,-15.188 4.64,-23.989 7.31,-1.351 22.1,-5.879 44.31,-14.679 3.65,-2.34 11.45,-4.602 23.01,-6.493 11.53,-1.839 19.41,-4.648 23.02,-8.257 -178.37,-188.129 -394.23,-304.36 -647.86,-348.582 z m -27.7,416.82 c -11.92,14.723 -16.57,27.32 -12.88,36.891 -0.85,-6.11 -5.49,-11.5 -12.87,-16.598 -5.99,7.406 -17.13,16.598 -33.23,27.656 -15.68,11.043 -26.75,20.293 -33.27,27.602 -2.24,3.73 -5.47,8.8 -10.15,15.781 -4.04,6.848 -9.58,15.641 -16.49,26.711 -6.49,11.058 -11.56,20.75 -14.79,28.508 -2.77,8.371 -3.23,13.058 -0.95,13.91 -23.02,-9.719 -57.15,-2.762 -101.44,20.359 -8.73,5.039 -21.68,17.871 -38.77,38.66 -16.99,21.211 -35.01,30.43 -53.45,27.743 -6,-1 -14.29,-3.332 -24.86,-6.532 -10.64,-2.84 -19.37,-4.539 -26.82,-4.539 -7.34,0 -17.03,2.629 -29.44,7.309 -9.72,3.762 -23.12,11.058 -39.69,21.211 -16.63,10.668 -28.12,17.09 -34.15,19.359 -3.69,2.77 -11.95,6.961 -23.98,12.91 -12.45,6.532 -22.1,11.071 -29.51,14.758 -7.41,3.692 -15.25,9.793 -23.02,17.482 -8.33,8.34 -13.4,16.68 -15.71,25.4 -2.77,7.41 -5.53,22.17 -9.22,44.23 -3.69,22.28 -8.76,37.88 -14.757,48.03 -7.34,11.99 -17.98,24.4 -31.351,36.88 -13.836,11.99 -25.825,18.45 -36.922,18.45 9.679,0 9.679,8.37 0,24.9 -10.145,16.59 -18.407,28.65 -25.821,35.96 -2.734,2.34 -10.113,10.18 -22.097,23.94 -12.489,13.44 -23.059,24.94 -31.387,35.12 -8.727,9.65 -16.145,21.21 -22.102,34.08 -6.488,12.98 -7.41,23.48 -3.722,32.32 0.922,0.95 0,2.8 -3.688,5.56 -3.652,2.31 -8.301,4.63 -13.801,7.35 -5.566,2.28 -11.062,4.56 -15.71,6.39 -5.071,1.91 -8.723,2.85 -11.524,2.85 2.801,-5.11 5.567,-13.8 8.793,-26.77 2.731,-12.87 6.422,-22.59 10.109,-28.61 2.309,-4.98 12.911,-23.06 31.356,-53.42 31.852,-51.64 46.637,-89.95 44.262,-114.43 -7.375,-2.76 -12.41,-1.32 -14.754,3.76 -2.766,4.54 -4.574,11.5 -5.5,20.26 -1.414,8.26 -2.762,14.71 -3.719,18.47 -3.691,7.35 -13.375,15.15 -28.59,23.95 -15.64,8.26 -24.863,17.02 -28.59,25.85 0.957,0 2.805,0.47 4.61,1.84 1.847,0.93 3.234,1.85 4.648,1.85 0.891,11.04 -5.531,24.79 -19.398,42.42 -14.297,17.02 -20.328,29.45 -17.95,36.86 -9.714,7.41 -18.441,21.67 -25.855,43.29 -7.379,21.24 -13.332,35.16 -18.441,41.49 -4.614,7.47 -11.106,13.9 -18.411,19.44 -7.449,5.53 -16.597,11.52 -27.699,18.5 -11.066,6.88 -18.445,11.42 -22.133,13.78 -2.304,1.36 -7.378,6.93 -14.789,16.67 -40.543,49.21 -52.562,75.54 -36.886,79.25 -15.676,-3.71 -29.051,8.32 -39.657,36 -10.109,27.59 -13.796,48.8 -10.109,63.61 l -3.687,1.86 c 1.382,5.08 1.843,19.37 1.843,43.33 0,23.98 1.844,46.11 4.578,65.48 3.262,19.79 9.258,29.54 17.52,29.54 -8.262,-0.94 -14.789,6.39 -19.328,23.07 -4.188,16.53 -4.613,28.13 -0.926,34.05 1.387,3.73 6.887,1.41 16.563,-7.3 10.148,-8.34 15.679,-13.87 16.601,-16.69 16.141,8.83 22.168,19.81 18.477,33.27 -2.336,5.09 -15.215,17.93 -38.731,38.7 -52.597,34.63 -79.871,51.23 -81.183,49.8 7.375,13.81 5.531,25.41 -5.571,35.13 -11.984,-7.43 -19.328,-9.31 -21.176,-5.55 -1.839,3.7 -3.226,10.52 -4.609,20.74 -1.414,9.6 -4.109,15.17 -9.219,16.53 -5.996,1 -13.375,6.07 -22.132,14.85 109.769,174.27 254.089,311.2 433.949,409.43 7.379,1.38 20.754,1.9 40.578,1.9 9.648,-1.38 18.867,-4.15 27.594,-9.26 8.371,-5.09 17.554,-11.51 26.812,-20.29 9.262,-8.81 16.141,-14.72 21.215,-18.43 2.269,7.42 -0.926,18.43 -9.227,33.14 2.305,7.42 15.68,14.84 40.579,22.14 28.055,3.71 46.565,3.25 55.295,-1.73 -7.31,11.01 -19.79,26.16 -36.85,46.11 l -9.23,-9.29 c -10.137,8.82 -35.962,4.19 -77.493,-12.87 -2.73,-1.38 -8.726,-4.6 -18.441,-10.21 -10.149,-5.51 -17.949,-9.68 -23.977,-12.01 -7.344,-2.22 -14.754,-3.15 -22.097,-1.73 58.984,31.72 116.582,57.1 173.368,75.53 3.65,-2.29 9.68,-7.83 18.44,-15.66 8.3,-7.84 15.18,-13.76 20.29,-17.49 -3.69,2.33 -6.42,1.4 -7.38,-3.72 -5.07,-14.71 -5.07,-27.22 0,-36.93 5.99,-8.68 14.26,-13.35 24.94,-14.72 10.57,-1.41 23.02,-0.47 37.77,1.87 14.75,2.32 24.44,3.65 29.51,3.65 l 18.48,-1.81 c 35.49,-3.35 51.6,-0.61 47.85,8.11 3.26,-5.6 6.87,-14.61 11.13,-27.46 5.18,-15.3 10.64,-26.3 16.64,-32.33 5.99,5.11 7.41,13.43 3.72,25.84 -3.72,12.51 -3.72,20.72 0,25.84 1.28,2.33 5.04,5.09 11.07,7.42 5.96,2.3 13.33,4.98 21.13,8.24 7.85,3.23 13.34,5.06 15.72,6.44 7.34,5.1 2.3,13.34 -14.76,25.84 -2.27,1.43 -7.84,3.28 -15.64,5.6 -7.91,2.27 -15.25,4.99 -21.24,7.27 -6,2.34 -12.46,6.07 -19.37,10.16 -6.91,4.21 -9.76,9.3 -9.22,14.72 0.46,5.59 4.15,12.56 10.11,21.26 7.45,6.02 19.43,8.83 36,7.44 16.63,-1.42 29.08,-4.19 37.81,-9.28 33.23,-18.41 38.3,-35.01 14.82,-49.72 12.38,-1.4 27.14,-6.02 44.23,-14.83 17.06,-8.71 23.94,-17.98 20.29,-27.68 9.61,18.51 19.83,27.68 29.51,27.68 6.45,-1.4 11.99,-9.63 17.52,-24.9 5.53,-15.18 9.22,-23.55 10.1,-24.94 10.22,-13.34 19.84,-16.56 29.55,-9.12 10.15,7.27 20.29,17.96 30.43,32.18 10.65,14.4 16.6,20.77 17.45,19.45 -11.91,5 -13.26,9.62 -3.61,14.71 18.48,11.05 35.04,14.29 49.8,9.29 3.72,-2.31 8.78,-7.86 14.78,-16.67 11.04,-22.15 9.19,-32.7 -5.57,-31.28 11.11,-9.72 15.72,-22.17 13.84,-36.98 -1.81,-14.72 -11.07,-21.67 -28.55,-20.25 -6.03,0 -14.8,3.23 -26.75,9.22 -11.56,5.96 -20.32,9.61 -26.81,10.09 -6.03,0.48 -14.72,-2.75 -25.75,-10.09 -4.69,-5.99 -11.1,-16.64 -19.4,-31.37 -7.85,-14.74 -14.76,-25.36 -21.21,-31.39 -18.44,-18.47 -49.37,-25.38 -92.26,-20.29 3.7,0 3.23,-3.69 -0.88,-11.03 -4.15,-7.38 -10.15,-15.71 -17.56,-24.88 -7.34,-9.24 -11.49,-14.83 -12.87,-15.73 -11.1,-12.47 -18.48,-26.7 -22.13,-42.44 0,-2.77 -0.53,-11.01 -1.88,-24.9 -1.35,-14.24 -3.73,-24.92 -7.35,-32.23 14.72,3.69 26.28,-3.7 35.08,-22.14 7.31,-17.6 7.31,-26.73 0,-27.67 40.54,5.99 76.05,3.7 106.94,-7.38 44.26,-16.13 69.56,-32.28 75.65,-47.97 7.3,11.09 25.36,11.57 53.46,1.8 11.09,-6.46 21.2,-24.89 29.54,-55.25 5.04,-19.03 13.3,-34.63 24.79,-48.46 12.05,-13.41 24.5,-17.11 37.91,-11.13 l 5.54,3.76 c 5.03,2.77 9.22,4.6 11.98,6.47 3.2,1.85 6.39,4.61 10.15,7.29 4.15,3.23 6,6.02 6.81,8.36 0.56,2.78 -0.36,5.09 -2.66,7.41 -8.76,7.27 -15.22,17.98 -19.82,30.82 -4.13,12.98 -3.31,23.98 2.76,34.21 3.69,4.61 13.87,11.92 29.93,22.11 15.71,9.71 25.9,19.34 29.55,29.52 4.61,15.66 -1.42,28.99 -18.45,39.65 -17.52,10.16 -26.28,19.79 -26.28,28.6 0,5.93 4.16,13.32 12.49,22.16 7.77,8.21 11.07,16.56 10.11,23.96 0,3.68 -2.34,11.01 -6.53,23.07 -4.54,11.47 -6.81,20.27 -7.31,25.82 -0.91,5.46 1.85,11.97 8.31,19.38 8.26,4.61 28.58,4.61 60.85,-0.94 31.75,-5.54 52.61,-11.61 62.79,-17.52 3.65,-2.77 11.45,-6.47 23.93,-11.06 11.93,-5.13 23.02,-10.13 32.28,-15.68 9.23,-5.59 14.19,-11.14 15.68,-15.75 l -9.29,0 c 8.26,-7.32 13.9,-16.14 15.75,-25.75 1.84,-10.18 -2.77,-17.61 -13.84,-22.1 7.38,0.8 16.99,-0.97 29.44,-5.59 19.44,-7.39 20.36,-14.36 1.88,-20.28 3.76,0.94 8.8,2.35 15.75,3.62 6.35,0.92 11.95,2.78 15.64,5.58 2.23,0.87 5.53,3.19 9.18,6.45 3.63,2.79 6.5,4.63 8.34,5.54 1.85,0.48 4.54,0.94 8.27,1.86 3.69,0.48 7.37,-0.44 11.03,-2.77 0.92,0 3.75,2.77 8.4,9.16 4.12,6.01 8.76,12.04 13.73,18.53 4.65,5.92 9.33,9.2 12.98,9.2 3.72,0 6.91,-1.87 10.08,-4.66 2.76,-3.23 5.63,-6.39 7.41,-10.07 1.91,-3.73 3.79,-7.91 5.56,-12.08 1.85,-4.49 3.2,-7.75 4.58,-10.08 2.38,-6.47 8.37,-12.97 17.52,-19.34 9.29,-6.95 15.29,-13.45 17.59,-19.48 1.31,-3.61 3.72,-12.85 7.35,-27.57 3.69,-14.84 8.76,-24.9 14.78,-30.45 6,-5.59 15.22,-10.22 27.71,-13.8 2.19,-1.36 7.76,-0.94 16.49,1.74 8.76,2.3 15.74,2.77 21.21,1.84 5.53,-1.38 8.37,-6.36 8.37,-14.73 7.41,7.44 11.07,11.97 11.07,14.73 1.34,-16.12 5,-28.98 11.95,-38.66 6.95,-10.21 17.56,-14.29 32.31,-12.89 l -3.66,-41.13 c -3.72,-5.92 -13.01,-10.53 -27.69,-13.79 -14.79,-2.8 -23.98,-5.54 -27.71,-8.36 -3.72,-0.86 -12.48,-8.22 -26.81,-22.11 -14.19,-13.34 -19.75,-21.21 -17.42,-23.99 -20.71,23.52 -52.1,30.48 -94.09,20.26 -47.03,-7.3 -78.81,-14.68 -95.95,-22.11 -19.78,-9.61 -33.15,-18.85 -40.5,-27.6 -1.41,-0.9 -3.72,-5.53 -6.49,-12.94 -3.19,-7.43 -6.42,-13.82 -9.29,-20.31 -2.38,-4.47 -4.49,-7.41 -6.38,-8.62 6.85,1.97 14.48,7.63 23.05,16.97 9.26,10.58 14.72,16.53 17.44,17.51 31.82,21.21 58.14,28.59 79.28,22.15 26.85,-7.41 31.5,-17.06 12.98,-29.58 -2.76,-2.31 -9.15,-3.23 -19.36,-2.73 -10.57,0.88 -17.52,0.42 -21.25,-0.98 11.1,-2.32 20.36,-5.44 27.63,-10.07 7.52,-4.15 9.26,-10.16 5.68,-17.51 19.36,-11.09 23.05,-23.05 11.06,-36.93 -16.24,-15.65 -35.15,-22.58 -57.25,-20.29 3.63,0 3.63,-2.29 0,-7.41 l -31.34,-20.24 c -2.74,-0.94 -10.58,-4.2 -23.95,-9.2 -13.83,-4.65 -23.06,-10.18 -27.73,-16.69 -3.62,-4.49 -5.46,-11.94 -5.46,-22.08 0,-9.69 -0.97,-17.1 -1.85,-22.17 -1.45,-4.63 -6.45,-5.94 -14.75,-3.71 -3.72,-7.31 -15.26,-12.85 -34.12,-17.48 -19.48,-4.19 -31.85,-10.57 -37.82,-19.33 7.35,-9.74 6.39,-19.83 -1.87,-29.58 -14.76,-12.4 -27.67,-11.02 -38.66,3.74 -6.5,-2.34 -11.18,-8.82 -13.91,-18.46 -3.19,-9.7 -7.83,-16.53 -13.83,-20.24 8.3,-13.48 7.37,-23.57 -3.69,-29.55 0.92,0 3.69,-1.4 8.34,-3.72 4.11,-2.31 8.76,-5.57 13.72,-9.15 4.68,-3.74 7.95,-5.59 9.37,-5.59 -5.18,-11.12 -12.07,-16.58 -20.37,-16.58 7.42,-19.93 -1.91,-41.12 -27.66,-64.64 -5.07,-4.98 -12.87,-9.58 -23.52,-14.72 -10.1,-5.05 -19.82,-8.79 -28.62,-11.92 -8.29,-3.22 -13.41,-5.53 -14.76,-6.49 -12.05,-11.12 -21.28,-22.59 -27.62,-34.2 -5.99,-11.91 -6.96,-23.05 -2.77,-34.03 4.61,-11.11 15.68,-18.45 34.12,-22.14 l 1.85,-14.83 c 0,-11.03 0,-22.13 0,-33.12 l 1.81,-14.87 c 1.41,-8.69 2.34,-16.53 2.83,-23.01 0.86,-6.85 0.86,-15.69 0,-25.82 -0.49,-10.58 -3.26,-16.61 -8.33,-17.53 -4.61,-1.38 -11.53,0 -20.28,3.69 -9.69,4.65 -21.25,31.85 -35.05,81.23 -2.34,11.91 -9.72,26.67 -22.17,44.26 -6.07,-6.49 -11.03,-10.22 -15.68,-12.06 -4.11,-1.85 -7.38,-2.27 -9.21,-0.92 -1.89,0.92 -5.04,3.76 -10.22,8.3 -4.54,4.18 -9.12,7.45 -12.81,10.15 -6.03,3.68 -16.59,6.44 -32.31,9.25 -15.18,2.31 -24.94,5.57 -28.59,9.26 -29.54,-22.14 -47.52,-16.68 -53.48,16.59 -2.31,-6.49 -2.31,-14.71 0.92,-24.93 3.19,-10.67 4.54,-16.56 4.54,-17.49 -8.69,-16.2 -22.1,-17.52 -40.54,-3.68 -7.34,7.37 -24.4,8.3 -50.72,2.76 -25.02,-5.28 -42.16,-6.31 -51.23,-3.18 1.4,-0.73 3.36,-2.43 6.08,-5.19 3.69,-2.77 5.92,-4.61 7.34,-5.53 -1.42,-4.96 -3.22,-8.72 -5.5,-11.03 -2.34,-2.8 -5.07,-3.73 -7.41,-2.8 -2.3,0.5 -5.07,0.5 -8.37,0 -3.19,-0.93 -5.89,-1.85 -8.26,-2.74 -5.04,-3.72 -11.04,-10.1 -18.37,-19.4 -7.42,-9.22 -12.95,-15.14 -16.64,-17.45 7.38,-19.83 10.6,-35.11 10.15,-45.19 -0.5,-10.63 -2.31,-25.82 -5.54,-46.14 -3.22,-20.25 -4.61,-36.92 -4.61,-48.92 0,-19.78 6,-42.34 17.52,-68.16 11.53,-25.9 25.36,-43.881 41.53,-54.022 8.73,-4.648 23.48,-7.91 44.23,-9.257 20.75,-0.922 35.54,0 44.27,3.687 7.38,3.692 12.94,8.301 16.63,12.981 3.69,5.001 6.92,11.921 9.19,21.711 2.34,9.12 4.18,15.6 5.56,19.29 8.76,23.06 24.44,35.47 47.96,36.89 14.75,0.89 25.82,-0.5 32.28,-4.61 6.91,-4.54 9.68,-10.15 8.29,-17.52 -0.96,-7.34 -3.68,-15.21 -7.37,-23.06 -3.72,-8.26 -8.26,-17.02 -13.83,-27.23 -5.54,-9.62 -8.76,-17.03 -10.19,-22.139 -2.26,-9.653 -4.57,-23.551 -6.41,-41.5 -1.85,-17.512 -3.23,-28.661 -4.61,-32.2 2.76,-0.929 11.98,-1.851 27.66,-1.851 0,2.769 0.92,6.32 2.8,11.922 1.81,5.527 2.7,9.218 2.7,10.136 6.49,-9.648 16.17,-15.207 29.54,-16.668 13.83,-0.921 23.52,3.758 29.52,14.829 2.8,-3.68 10.13,-12.911 22.16,-27.668 12.48,-14.75 19.33,-26.743 20.26,-36.821 1.37,-4.601 3.72,-12.968 7.44,-24.039 3.65,-11.062 4.97,-18.453 3.65,-23.019 -0.96,-4.153 -7.37,-6.492 -18.48,-6.492 -4.61,0 -7.91,-1.848 -9.15,-5.54 -0.99,-3.679 -0.99,-8.332 0,-13.789 1.24,-5.57 2.63,-10.679 4.54,-15.793 1.85,-4.957 4.61,-10.027 7.42,-15.597 3.23,-5.531 4.58,-8.801 4.58,-10.153 22.13,-40.636 52.62,-51.636 90.4,-33.187 0,-35.621 -8.37,-55.402 -25.82,-59.09 -9.68,-2.199 -20.78,3.688 -33.27,18.508 z M 2644.18,2129.15 c -126.29,217.12 -298.29,388.74 -515.52,515.56 -217.14,126.74 -454.21,189.93 -711.53,189.93 -256.9,0 -494.357,-63.19 -711.564,-189.93 C 488.824,2517.89 316.84,2346.27 190.004,2129.15 63.168,1911.89 0,1674.83 0,1417.61 0,1160.25 63.168,923.211 190.004,705.93 316.84,488.801 488.824,316.801 705.566,190.43 922.773,63.6289 1160.23,0 1417.13,0 c 257.32,0 494.39,63.6289 711.53,190.43 217.23,126.371 389.23,298.371 515.52,515.5 126.91,217.281 190.46,473.23 190.46,730.55 0,257.26 -63.55,475.41 -190.46,692.67"
             inkscape:connector-curvature="0"
             id="path22"
             style="fill:#231f20;fill-opacity:1;fill-rule:nonzero;stroke:none" /><path
             d="m 1254.28,1315.72 c -0.51,0.26 -0.96,0.42 -1.33,0.42 0.39,-0.17 0.9,-0.27 1.33,-0.42"
             inkscape:connector-curvature="0"
             id="path24"
             style="fill:#050606;fill-opacity:1;fill-rule:nonzero;stroke:none" /><path
             d="m 1882.44,1838.71 c -0.61,-0.17 -1.25,-0.51 -1.85,-0.62 0.6,0 1.21,0.22 1.85,0.62"
             inkscape:connector-curvature="0"
             id="path26"
             style="fill:#050606;fill-opacity:1;fill-rule:nonzero;stroke:none" /></g></g></g></g></svg>