<?xml version="1.0" encoding="UTF-8" standalone="no"?>
<svg
   xmlns:dc="http://purl.org/dc/elements/1.1/"
   xmlns:cc="http://creativecommons.org/ns#"
   xmlns:rdf="http://www.w3.org/1999/02/22-rdf-syntax-ns#"
   xmlns:svg="http://www.w3.org/2000/svg"
   xmlns="http://www.w3.org/2000/svg"
   viewBox="0 0 743.84998 534.09998"
   height="534.09998"
   width="743.84998"
   xml:space="preserve"
   version="1.1"
   id="svg2"><metadata
     id="metadata8"><rdf:RDF><cc:Work
         rdf:about=""><dc:format>image/svg+xml</dc:format><dc:type
           rdf:resource="http://purl.org/dc/dcmitype/StillImage" /></cc:Work></rdf:RDF></metadata><defs
     id="defs6"><clipPath
       id="clipPath18"
       clipPathUnits="userSpaceOnUse"><path
         id="path20"
         d="M 0,4272.8 0,0 l 5950.83,0 0,4272.8 -5950.83,0 z" /></clipPath></defs><g
     transform="matrix(1.25,0,0,-1.25,0,534.1)"
     id="g10"><g
       transform="scale(0.1,0.1)"
       id="g12"><g
         id="g14"><g
           clip-path="url(#clipPath18)"
           id="g16"><path
             id="path22"
             style="fill:none;stroke:#231f20;stroke-width:0.1;stroke-linecap:butt;stroke-linejoin:miter;stroke-miterlimit:10;stroke-dasharray:none;stroke-opacity:1"
             d="m 1100.66,885.078 3.94,9.301" /><path
             id="path24"
             style="fill:none;stroke:#231f20;stroke-width:0.1;stroke-linecap:butt;stroke-linejoin:miter;stroke-miterlimit:10;stroke-dasharray:none;stroke-opacity:1"
             d="m 1102.88,881.09 3.94,9.308" /><path
             id="path26"
             style="fill:#ffffff;fill-opacity:1;fill-rule:nonzero;stroke:none"
             d="m 5004.89,744.93 -1820.18,0 c 0,0 -1798.46,2193.94 -1809.25,2187.24 l 0,-1843.73 c 0,-228.292 299.01,-325.03 299.01,-325.03 0.07,0.36 7.82,-18.48 7.96,-18.48 l -749.879,0 c 0.203,0.672 7.508,17.929 7.621,18.039 0.16,0.14 180.928,51.691 180.928,325.681 0,534.56 -1.71,1572.65 -1.02,2111.31 0.17,152.13 -159.9,287.9 -329.162,338.66 l -8.223,19.23 701.625,0 1686.58,-2107.74 -0.19,1737.11 c 0,167.46 -127.66,294.92 -294.94,351.64 l -8.23,18.99 1979.85,0 0,-562.59 c -8.38,4.01 -18.07,7.74 -18.07,7.74 0,0 -65.47,199.31 -216.39,278.64 -51.07,26.81 -344.47,17.59 -985.82,17.59 0,-30.24 0,-883.98 0,-883.98 0,0 734.67,0 977.35,0 167.73,0 210.04,157.03 211.99,157.81 1.93,0.84 6.56,2.77 18.2,7.91 0,0 0.94,-414.09 0.94,-612.13 -10.16,4.25 -18.32,7.8 -18.32,7.8 0,0 -44.73,183.6 -212.95,183.6 l -977.21,0 0,-1160.318 c 628.31,0 1017.33,-25.844 1191.88,63.828 134.63,70.65 228.81,331.76 228.81,331.76 0,0 9.2,3.64 18.81,8.19 -21.41,-227.03 -40.14,-423.841 -61.72,-658.77 z m 655.74,3246.19 -5370.431,0 0,-3717.198 5370.431,0 0,3717.198" /><path
             id="path28"
             style="fill:#ffffff;fill-opacity:1;fill-rule:nonzero;stroke:none"
             d="m 5805.65,136.961 -5660.568,0 0,3991.129 5660.568,0 0,-3991.129 z M 0,4272.8 0,0 l 5950.83,0 0,4272.8 -5950.83,0" /></g></g></g></g></svg>