<?xml version="1.0" encoding="UTF-8" standalone="no"?>
<svg
   xmlns:dc="http://purl.org/dc/elements/1.1/"
   xmlns:cc="http://creativecommons.org/ns#"
   xmlns:rdf="http://www.w3.org/1999/02/22-rdf-syntax-ns#"
   xmlns:svg="http://www.w3.org/2000/svg"
   xmlns="http://www.w3.org/2000/svg"
   viewBox="0 0 354.32501 354.32501"
   height="354.32501"
   width="354.32501"
   xml:space="preserve"
   version="1.1"
   id="svg2"><metadata
     id="metadata8"><rdf:RDF><cc:Work
         rdf:about=""><dc:format>image/svg+xml</dc:format><dc:type
           rdf:resource="http://purl.org/dc/dcmitype/StillImage" /></cc:Work></rdf:RDF></metadata><defs
     id="defs6"><clipPath
       id="clipPath18"
       clipPathUnits="userSpaceOnUse"><path
         id="path20"
         d="M 0,2834.65 0,0 l 2834.64,0 0,2834.65 -2834.64,0 z" /></clipPath></defs><g
     transform="matrix(1.25,0,0,-1.25,0,354.325)"
     id="g10"><g
       transform="scale(0.1,0.1)"
       id="g12"><g
         id="g14"><g
           clip-path="url(#clipPath18)"
           id="g16"><path
             id="path22"
             style="fill:#231f20;fill-opacity:1;fill-rule:nonzero;stroke:none"
             d="m 1417.34,2201.72 -372.09,-159.58 372.09,-159.39 372.06,159.39 -372.06,159.58" /><path
             id="path24"
             style="fill:#231f20;fill-opacity:1;fill-rule:nonzero;stroke:none"
             d="m 1039.32,932.68 324.04,162.09 0,264.95 -324.04,-138.47 0,-288.57" /><path
             id="path26"
             style="fill:#231f20;fill-opacity:1;fill-rule:nonzero;stroke:none"
             d="m 985.375,1607.66 -340.883,-145.88 340.883,-145.9 340.745,145.9 -340.745,145.88" /><path
             id="path28"
             style="fill:#231f20;fill-opacity:1;fill-rule:nonzero;stroke:none"
             d="m 596.43,1099.59 324.039,-162.09 0,288.58 -324.039,138.5 0,-264.99" /><path
             id="path30"
             style="fill:#231f20;fill-opacity:1;fill-rule:nonzero;stroke:none"
             d="m 1795.29,1926.61 -324.01,-138.49 0,-225.15 324.01,139.14 0,224.5" /><path
             id="path32"
             style="fill:#231f20;fill-opacity:1;fill-rule:nonzero;stroke:none"
             d="m 1358.89,1788.12 -324,138.49 0,-224.5 324,-139.14 0,225.15" /><path
             id="path34"
             style="fill:#231f20;fill-opacity:1;fill-rule:nonzero;stroke:none"
             d="m 1903.22,932.68 324.04,162.09 0,264.95 -324.04,-138.47 0,-288.57" /><path
             id="path36"
             style="fill:#231f20;fill-opacity:1;fill-rule:nonzero;stroke:none"
             d="m 1472.39,1094.45 324.03,-162.059 0,288.539 -324.03,138.51 0,-264.99" /><path
             id="path38"
             style="fill:#231f20;fill-opacity:1;fill-rule:nonzero;stroke:none"
             d="m 2335.19,1094.77 c 0,-20.29 -5.4,-39.02 -16.03,-56.54 -10.61,-17.49 -25.3,-30.57 -43.84,-39.789 L 1897.33,809.57 c -14,-7.8 -30.04,-11.808 -48.1,-11.808 -18.01,0 -34.04,4.008 -48.05,11.808 l -377.95,188.871 c -2.87,1.239 -4.86,2.479 -5.89,3.539 -1.2,-1.06 -3.19,-2.3 -5.92,-3.539 L 1033.43,809.57 c -14.01,-7.8 -30.04,-11.808 -48.055,-11.808 -18.016,0 -34.047,4.008 -48.094,11.808 L 559.332,998.441 c -18.551,9.219 -33.234,22.299 -43.84,39.789 -10.781,17.52 -16.027,36.25 -16.027,56.54 l 0,351.01 c 0,21.28 5.996,40.86 18.125,58.99 12.019,17.94 27.914,31.63 47.629,40.49 l 366.172,156.85 0,337.5 c 0,21.3 6.031,41.11 18.125,59.25 12.027,17.7 27.949,31.18 47.672,40.47 l 377.942,161.9 c 12.88,5.46 26.99,8.42 42.21,8.42 15.15,0 29.19,-2.96 42.14,-8.42 l 377.95,-161.9 c 19.75,-9.29 35.53,-22.77 47.66,-40.47 12.13,-18.14 18.13,-37.95 18.13,-59.25 l 0,-337.5 366.17,-156.85 c 20.25,-8.86 36.25,-22.55 48.1,-40.49 11.77,-18.13 17.7,-37.71 17.7,-58.99 l 0,-351.01 z M 1417.3,2834.65 C 634.527,2834.65 0,2200.09 0,1417.34 0,634.531 634.527,0 1417.3,0 c 782.78,0 1417.34,634.531 1417.34,1417.34 0,782.75 -634.56,1417.31 -1417.34,1417.31" /><path
             id="path40"
             style="fill:#231f20;fill-opacity:1;fill-rule:nonzero;stroke:none"
             d="m 1849.23,1607.66 -340.84,-145.88 340.84,-145.9 340.82,145.9 -340.82,145.88" /></g></g></g></g></svg>