<?xml version="1.0" encoding="UTF-8" standalone="no"?>
<!-- Created with Inkscape (http://www.inkscape.org/) -->

<svg
   xmlns:dc="http://purl.org/dc/elements/1.1/"
   xmlns:cc="http://creativecommons.org/ns#"
   xmlns:rdf="http://www.w3.org/1999/02/22-rdf-syntax-ns#"
   xmlns:svg="http://www.w3.org/2000/svg"
   xmlns="http://www.w3.org/2000/svg"
   xmlns:inkscape="http://www.inkscape.org/namespaces/inkscape"
   version="1.1"
   width="354.32501"
   height="354.32501"
   id="svg2"
   xml:space="preserve"><metadata
     id="metadata8"><rdf:RDF><cc:Work
         rdf:about=""><dc:format>image/svg+xml</dc:format><dc:type
           rdf:resource="http://purl.org/dc/dcmitype/StillImage" /></cc:Work></rdf:RDF></metadata><defs
     id="defs6"><clipPath
       id="clipPath18"><path
         d="M 0,2834.65 0,0 l 2834.64,0 0,2834.65 -2834.64,0 z"
         inkscape:connector-curvature="0"
         id="path20" /></clipPath></defs><g
     transform="matrix(1.25,0,0,-1.25,0,354.325)"
     id="g10"><g
       transform="scale(0.1,0.1)"
       id="g12"><g
         id="g14"><g
           clip-path="url(#clipPath18)"
           id="g16"><path
             d="m 2276.98,696.781 -360.18,0 -293.82,704.789 c 0,0 153.76,-1.13 189.58,-1.13 0,0 207.35,-8.09 207.35,172.91 0,83.24 -69.98,156.32 -121.23,158.72 -75.4,3.53 -190.07,5.94 -351.45,5.94 0,0 3.61,-441.56 3.61,-481 0,-117.21 -48.55,-560.229 -515.49,-560.229 -453.635,0 -498.041,443.019 -498.041,560.229 l 0,808.67 340.562,0 0,-891.59 c 0,0 12.625,-151.41 159.889,-151.41 170.57,0 176.03,153.26 176.03,153.26 l 0,889.74 710.46,0 c 0,0 429.52,-28 429.52,-492.33 0,-229.8 -119.42,-357.76 -271.01,-400.4 L 2276.98,696.781 z M 1417.27,2834.65 C 634.562,2834.65 0,2200.07 0,1417.37 0,634.641 634.562,0 1417.27,0 c 782.78,0 1417.37,634.641 1417.37,1417.37 0,782.7 -634.59,1417.28 -1417.37,1417.28"
             inkscape:connector-curvature="0"
             id="path22"
             style="fill:#ffffff;fill-opacity:1;fill-rule:nonzero;stroke:none" /></g></g></g></g></svg>